<svg width="176" height="80" viewBox="0 0 176 80" fill="none" xmlns="http://www.w3.org/2000/svg">
<path fill-rule="evenodd" clip-rule="evenodd" d="M42.1852 23.2461L23.2152 0.220102C22.8402 -0.229898 22.1102 0.0621018 22.1502 0.646102L23.7102 22.9481L9.85723 11.0681C9.41223 10.6881 8.74223 11.1021 8.88323 11.6711L14.3602 33.7001L1.06723 25.8501C0.563232 25.5531 -0.024768 26.0781 0.213232 26.6131L23.5502 79.2131C23.7902 79.7531 24.5802 79.6591 24.6902 79.0791L29.7622 52.0891L42.7222 30.1331C44.0122 27.9531 43.7962 25.1931 42.1852 23.2391V23.2461Z" fill="#FF6600"/>
<path fill-rule="evenodd" clip-rule="evenodd" d="M23.5522 22.9479L9.69819 11.0679C9.25419 10.6879 8.58319 11.1019 8.72419 11.6699L14.2022 33.6969L24.7382 39.9189L23.5522 22.9389V22.9479Z" fill="#E74030"/>
<path fill-rule="evenodd" clip-rule="evenodd" d="M23.7618 67.605C23.5548 68.158 22.7598 68.112 22.6168 67.539L14.2018 33.689L0.90776 25.84C0.40376 25.543 -0.18224 26.068 0.05476 26.603L23.3918 79.203C23.6318 79.743 24.4218 79.651 24.5318 79.071L29.6018 52.089L29.5168 52.234L23.7618 67.6V67.605Z" fill="#FAB418"/>
<path fill-rule="evenodd" clip-rule="evenodd" d="M23.7622 67.605L29.5172 52.243L26.9972 56.513C26.6972 57.021 25.9212 56.837 25.8802 56.248L24.7402 39.9179L14.2002 33.7L22.6152 67.54C22.7582 68.114 23.5532 68.16 23.7602 67.607" fill="#DE0732"/>
<path fill-rule="evenodd" clip-rule="evenodd" d="M42.0269 23.2461L23.0549 0.220102C22.6829 -0.229898 21.9519 0.0621018 21.9929 0.646102L23.5529 22.9481L33.1759 31.2021C35.0959 32.8471 35.7809 35.5191 34.8939 37.8881L29.6339 51.9281L29.6039 52.0961L42.5639 30.1401C43.8539 27.9581 43.6379 25.2001 42.0269 23.2461Z" fill="#FF6600"/>
<path fill-rule="evenodd" clip-rule="evenodd" d="M27.5438 41.5759C29.7238 42.8639 30.8638 45.3819 30.3968 47.8739L29.6348 51.9269L34.8948 37.8869C35.7808 35.5189 35.0948 32.8469 33.1748 31.2009L23.5518 22.9509L24.7378 39.9209L27.5438 41.5809V41.5759Z" fill="#DE0733"/>
<path fill-rule="evenodd" clip-rule="evenodd" d="M29.5171 52.265L29.6091 52.108L29.6391 51.928" fill="black"/>
<path fill-rule="evenodd" clip-rule="evenodd" d="M29.5171 52.265L29.6091 52.108L29.6391 51.928" fill="black"/>
<path fill-rule="evenodd" clip-rule="evenodd" d="M27.5438 41.5759L24.7378 39.9199L25.8798 56.2479C25.9198 56.8379 26.6958 57.0209 26.9958 56.5119L29.5158 52.2419L29.6358 51.9269L30.3958 47.8739C30.8658 45.3819 29.7238 42.8639 27.5438 41.5759Z" fill="#CC1D46"/>
<path fill-rule="evenodd" clip-rule="evenodd" d="M56.5868 52.577H68.0298L62.3098 37.337L56.5868 52.577ZM61.9708 31.614H62.8608C64.0708 31.614 65.1508 32.354 65.5908 33.476L78.9708 67.662H74.9508C74.2208 67.662 73.5708 67.21 73.3108 66.528L69.6508 56.895H55.0298L51.4498 66.517C51.1948 67.205 50.5398 67.662 49.8028 67.662H45.9268L59.2398 33.48C59.6798 32.355 60.7638 31.614 61.9708 31.614Z" fill="white"/>
<mask id="mask0_492_658" style="mask-type:luminance" maskUnits="userSpaceOnUse" x="0" y="0" width="177" height="80">
<path d="M0 79.57H176.006V0H0V79.57Z" fill="white"/>
</mask>
<g mask="url(#mask0_492_658)">
<path fill-rule="evenodd" clip-rule="evenodd" d="M134.022 67.665H138.912V31.618H134.022M152.598 39.61V67.672H148.073V31.652H150.927C151.877 31.652 152.767 32.114 153.317 32.889L171.48 58.539V31.62L176.005 31.613V67.67H173.835C172.88 67.67 171.985 67.207 171.437 66.426L152.597 39.61H152.598ZM116.315 67.665H112.205L102.478 38.432L92.7511 67.665H88.7001L77.8701 31.618H81.7701C82.5581 31.618 83.2501 32.143 83.4631 32.902L90.9891 59.812L99.6491 33.136C99.9391 32.231 100.783 31.618 101.739 31.618H103.431C104.384 31.618 105.228 32.231 105.521 33.136L114.184 59.811L121.679 32.911C121.889 32.151 122.585 31.628 123.374 31.628H127.137L116.32 67.67L116.315 67.665Z" fill="white"/>
</g>
</svg>
