<svg width="1277" height="317" viewBox="0 0 1277 317" fill="none" xmlns="http://www.w3.org/2000/svg">
<g clip-path="url(#clip0_493_673)">
<rect x="49" y="61" width="218" height="194" fill="#0D148C"/>
<path fill-rule="evenodd" clip-rule="evenodd" d="M387.44 95.2599V119.99H353.68V95.2599H387.44ZM387.44 130.71L387.31 218.91L353.59 218.86L353.71 130.66L387.44 130.71ZM432.2 144.09C435.9 138.563 439.98 134.647 444.44 132.34C449.234 129.966 454.532 128.789 459.88 128.91C461.764 128.803 463.649 129.1 465.41 129.78V157.62H464.7C454.7 155.993 446.963 157.28 441.49 161.48C436.017 165.68 433.273 172.793 433.26 182.82L433.1 218.99L399.37 218.94L399.5 130.75H431.61V144.09H432.2ZM498.02 218.28C492.194 216.092 486.863 212.764 482.34 208.49C477.989 204.311 474.559 199.271 472.27 193.69C467.529 181.743 467.55 168.432 472.33 156.5C474.638 150.907 478.077 145.852 482.43 141.65C486.935 137.345 492.266 133.998 498.1 131.81C511.439 127.096 525.994 127.117 539.32 131.87C545.143 134.052 550.454 137.412 554.92 141.74C559.205 145.969 562.569 151.038 564.8 156.63C569.431 168.594 569.413 181.858 564.75 193.81C562.512 199.373 559.133 204.404 554.83 208.58C550.336 212.858 545.018 216.175 539.2 218.33C525.866 223.057 511.313 223.057 497.98 218.33L498.02 218.28ZM530.09 193.28C532.71 188.733 534.027 182.71 534.04 175.21C534.053 167.71 532.74 161.673 530.1 157.1C528.987 154.963 527.289 153.185 525.206 151.974C523.122 150.764 520.738 150.169 518.33 150.26C515.944 150.153 513.578 150.739 511.518 151.948C509.457 153.156 507.791 154.935 506.72 157.07C504.22 161.617 502.963 167.64 502.95 175.14C502.936 182.64 504.177 188.663 506.67 193.21C507.734 195.349 509.395 197.134 511.451 198.35C513.508 199.565 515.873 200.159 518.26 200.06C520.666 200.152 523.049 199.561 525.133 198.356C527.218 197.151 528.919 195.381 530.04 193.25L530.09 193.28ZM609.37 143.14C612.733 138.6 617.03 134.832 621.97 132.09C627.129 129.452 632.868 128.152 638.66 128.31C649.247 128.31 657.213 131.433 662.56 137.68C667.907 143.927 670.573 152.117 670.56 162.25L670.48 219.32L636.76 219.27L636.83 170.16C636.83 165.553 635.83 161.863 633.83 159.09C631.83 156.317 628.587 154.917 624.1 154.89C622.159 154.806 620.227 155.194 618.47 156.022C616.712 156.849 615.182 158.091 614.01 159.64C611.471 163.113 610.174 167.34 610.33 171.64L610.27 219.2L576.55 219.15L576.67 130.96H608.79V143.06L609.37 143.14ZM712.61 219.69C706.029 218.152 699.766 215.482 694.1 211.8C688.955 208.427 684.679 203.888 681.62 198.55C678.49 192.824 676.872 186.395 676.92 179.87L715.11 179.92C715.69 184.88 717.853 188.547 721.6 190.92C725.347 193.293 730.313 194.483 736.5 194.49C738.377 194.483 740.251 194.316 742.1 193.99C743.932 193.687 745.706 193.103 747.36 192.26C748.863 191.494 750.178 190.405 751.21 189.07C752.236 187.703 752.772 186.029 752.73 184.32C752.784 182.617 752.215 180.953 751.13 179.64C749.846 178.217 748.266 177.094 746.5 176.35C744.044 175.279 741.506 174.41 738.91 173.75C735.883 172.937 732.407 172.067 728.48 171.14C723.147 169.86 717.676 168.353 712.07 166.62C706.721 164.99 701.6 162.689 696.83 159.77C692.342 157.026 688.509 153.333 685.6 148.95C682.687 144.563 681.237 139.083 681.25 132.51C681.25 125.477 682.657 119.477 685.47 114.51C688.217 109.619 692.112 105.47 696.82 102.42C701.961 99.165 707.644 96.8585 713.6 95.6099C720.281 94.1534 727.102 93.439 733.94 93.4799C740.332 93.4725 746.704 94.1769 752.94 95.5799C758.73 96.8316 764.254 99.0928 769.26 102.26C773.933 105.236 777.838 109.272 780.66 114.04C783.633 119.284 785.165 125.222 785.1 131.25H748.17C747.673 128.066 745.986 125.188 743.45 123.2C740.89 121.2 737.053 120.2 731.94 120.2C727.78 120.2 724.42 121.003 721.86 122.61C719.3 124.217 718.016 126.29 718.01 128.83C717.988 129.681 718.156 130.527 718.502 131.306C718.848 132.084 719.363 132.776 720.01 133.33C721.734 134.691 723.703 135.709 725.81 136.33C728.905 137.342 732.061 138.153 735.26 138.76C739 139.52 743.26 140.47 748.01 141.63C753.319 142.894 758.56 144.432 763.71 146.24C768.624 147.928 773.254 150.352 777.44 153.43C781.423 156.393 784.719 160.183 787.1 164.54C789.527 168.98 790.737 174.487 790.73 181.06C790.857 187.306 789.34 193.476 786.33 198.95C783.402 204.089 779.338 208.491 774.45 211.82C769.112 215.425 763.192 218.081 756.95 219.67C750.016 221.477 742.875 222.368 735.71 222.32C727.932 222.371 720.177 221.488 712.61 219.69ZM825.73 218.69C819.9 216.503 814.566 213.175 810.04 208.9C805.693 204.721 802.266 199.68 799.98 194.1C795.226 182.162 795.226 168.857 799.98 156.92C802.302 151.336 805.747 146.288 810.1 142.09C814.616 137.78 819.961 134.432 825.81 132.25C839.151 127.55 853.702 127.571 867.03 132.31C872.854 134.495 878.165 137.859 882.63 142.19C886.914 146.419 890.278 151.489 892.51 157.08C897.127 169.046 897.109 182.306 892.46 194.26C890.227 199.806 886.858 204.824 882.57 208.99C878.076 213.263 872.762 216.58 866.95 218.74C853.611 223.454 839.055 223.433 825.73 218.68V218.69ZM857.79 193.69C860.417 189.143 861.733 183.12 861.74 175.62C861.747 168.12 860.447 162.097 857.84 157.55C856.729 155.416 855.037 153.641 852.96 152.428C850.882 151.216 848.504 150.617 846.1 150.7C843.712 150.59 841.344 151.176 839.283 152.387C837.222 153.598 835.557 155.381 834.49 157.52C831.983 162.073 830.727 168.093 830.72 175.58C830.713 183.067 831.953 189.093 834.44 193.66C835.505 195.798 837.166 197.583 839.222 198.798C841.279 200.014 843.643 200.608 846.03 200.51C848.434 200.597 850.813 200.003 852.894 198.796C854.974 197.59 856.672 195.82 857.79 193.69ZM965 208.27H964.47C961.286 212.638 957.165 216.239 952.41 218.81C947.351 221.33 941.75 222.57 936.1 222.42C931.223 222.52 926.375 221.661 921.83 219.89C917.985 218.352 914.541 215.958 911.76 212.89C909.036 209.769 906.993 206.115 905.76 202.16C904.36 197.683 903.684 193.01 903.76 188.32L903.84 131.43H937.57L937.5 180.55C937.5 189.883 941.537 194.55 949.61 194.55C954.01 194.55 957.433 193.173 959.88 190.42C962.327 187.667 963.55 183.863 963.55 179.01L963.62 131.45L997.34 131.5L997.22 219.7L965.1 219.65L965 208.27ZM1042 144.91C1045.7 139.383 1049.78 135.47 1054.24 133.17C1059.03 130.793 1064.33 129.613 1069.68 129.73C1071.56 129.628 1073.45 129.924 1075.21 130.6V158.45H1074.5C1064.5 156.823 1056.77 158.107 1051.3 162.3C1045.83 166.493 1043.09 173.61 1043.06 183.65L1043.01 219.79H1009.28L1009.41 131.59L1041.53 131.64V144.95L1042 144.91ZM1108 219.11C1102.15 216.905 1096.8 213.576 1092.23 209.31C1087.83 205.156 1084.37 200.11 1082.08 194.51C1077.31 182.575 1077.31 169.265 1082.08 157.33C1084.4 151.72 1087.87 146.658 1092.27 142.47C1096.83 138.172 1102.21 134.83 1108.08 132.64C1120.32 128.277 1133.64 127.962 1146.08 131.74C1151.06 133.307 1155.72 135.775 1159.81 139.02C1163.63 142.091 1166.81 145.887 1169.16 150.19C1171.56 154.61 1173.07 159.458 1173.6 164.46H1141.13C1140.18 160.42 1138.7 157.333 1136.68 155.2C1134.66 153.067 1131.81 151.997 1128.12 151.99C1122.89 151.99 1119.02 154.117 1116.51 158.37C1114 162.623 1112.76 168.497 1112.78 175.99C1112.78 183.37 1114.08 189.167 1116.68 193.38C1119.28 197.593 1123.2 199.703 1128.45 199.71C1132.61 199.71 1135.73 198.417 1137.82 195.83C1139.91 193.243 1141.19 189.41 1141.68 184.33L1174.15 184.38C1174.18 189.604 1173.05 194.77 1170.83 199.5C1168.62 204.169 1165.45 208.319 1161.53 211.68C1157.28 215.288 1152.37 218.041 1147.07 219.79C1134.33 223.895 1120.59 223.666 1107.99 219.14L1108 219.11ZM1207.65 218.98C1201.83 216.815 1196.5 213.518 1191.96 209.28C1187.57 205.12 1184.11 200.075 1181.81 194.48C1177.06 182.48 1177.06 169.12 1181.81 157.12C1184.11 151.545 1187.51 146.492 1191.81 142.26C1196.22 137.983 1201.44 134.64 1207.17 132.43C1219.62 127.841 1233.28 127.735 1245.8 132.13C1251.13 134.151 1256.05 137.115 1260.33 140.88C1265.98 145.943 1270.21 152.387 1272.61 159.58C1275.27 167.425 1276.47 175.692 1276.15 183.97L1211.2 183.88C1212.14 189.073 1214.07 193.11 1216.98 195.99C1219.89 198.87 1223.89 200.317 1228.98 200.33C1234.92 200.33 1239.14 198.147 1241.65 193.78H1274.31C1273.23 198.052 1271.18 202.015 1268.31 205.36C1261.84 212.859 1253.25 218.216 1243.67 220.72C1238.49 221.923 1233.19 222.497 1227.87 222.43C1220.97 222.523 1214.12 221.357 1207.64 218.99L1207.65 218.98ZM1216.65 155.09C1213.82 158.346 1211.96 162.33 1211.28 166.59H1242.69C1241.98 161.63 1240.29 157.767 1237.62 155C1236.32 153.639 1234.76 152.565 1233.02 151.846C1231.29 151.128 1229.42 150.782 1227.54 150.83C1222.9 150.85 1219.27 152.27 1216.65 155.09Z" fill="white"/>
<path d="M81.3901 80.81H80.8902L80.8901 81.3098L80.8801 115.53L80.8799 116.029L81.3794 116.03L102.969 116.06L124.559 116.09L125.06 116.091V115.59V81.31V80.81H124.56H81.3901ZM67.8051 167.385L67.4615 167.497L67.4601 167.858L67.3701 191.158L67.3687 191.518L67.7091 191.633C68.7132 191.975 69.7607 192.284 70.7918 192.588C71.287 192.735 71.7784 192.88 72.2594 193.027C73.757 193.484 75.1728 193.966 76.398 194.577C77.6222 195.189 78.6283 195.916 79.3288 196.851C80.0229 197.778 80.4401 198.937 80.4401 200.46V232.99V233.486L80.9361 233.49L124.486 233.84L124.99 233.844V233.34V208.451C125 199.929 123.926 193.605 121.403 188.836C119.065 184.416 115.509 181.379 110.537 179.158C115.282 177.584 118.829 174.882 121.229 170.933C123.838 166.639 125.06 160.919 125.06 153.68V124.6V124.101L124.561 124.1L81.1109 124.03L80.6108 124.029L80.6101 124.529L80.5601 158.929C80.5556 161.214 78.9766 162.834 76.4914 164.157C74.3954 165.273 71.7809 166.11 69.2189 166.929C68.7446 167.081 68.2722 167.232 67.8051 167.385ZM145.911 224.392C155.594 233.015 170.187 238.276 189.837 238.31L189.839 238.32C210.387 238.345 225.117 232.382 234.727 223.037C244.336 213.694 248.775 201.022 248.84 187.732V187.73C248.84 175.41 244.602 166.449 238.236 159.656C231.885 152.878 223.435 148.279 215.04 144.625C211.206 142.957 207.373 141.482 203.75 140.087C203.404 139.954 203.061 139.822 202.719 139.69C198.791 138.177 195.145 136.749 192.025 135.252C188.901 133.753 186.343 132.201 184.57 130.455C182.808 128.719 181.84 126.811 181.84 124.571C181.845 121.737 182.763 119.493 184.424 117.953C186.089 116.409 188.56 115.52 191.769 115.52C195.751 115.525 198.586 117.216 200.441 119.743C202.309 122.289 203.2 125.712 203.2 129.17V134.08V134.579L203.699 134.58L247.549 134.64L248.05 134.641V134.14V125.571C248.07 112.315 243.412 100.369 234.018 91.7344C224.627 83.1024 210.553 77.8251 191.821 77.8C170.99 77.7699 156.301 83.5088 146.818 92.6296C137.336 101.75 133.12 114.194 133.12 127.449C133.102 139.774 137.331 148.863 143.69 155.818C150.036 162.759 158.486 167.556 166.888 171.349C171.091 173.247 175.292 174.898 179.22 176.439L179.311 176.475C183.209 178.005 186.828 179.425 189.929 180.878C193.06 182.344 195.624 183.826 197.4 185.458C199.168 187.081 200.12 188.817 200.12 190.809C200.115 193.765 199.187 196.049 197.373 197.604C195.548 199.17 192.752 200.06 188.891 200.06C184.734 200.055 181.632 198.623 179.56 196.197C177.48 193.759 176.39 190.26 176.39 186.04V182.57V182.071L175.891 182.07L132.021 182.01L131.52 182.009V182.51V190.509C131.5 203.808 136.22 215.761 145.911 224.392ZM70.5489 27.0366C96.4652 9.72435 126.933 0.486048 158.1 0.489991C178.793 0.4913 199.284 4.5686 218.401 12.4891C237.518 20.4095 254.889 32.018 269.519 46.6517C284.15 61.2855 295.756 78.6578 303.672 97.7767C311.589 116.896 315.663 137.387 315.66 158.08C315.658 189.247 306.414 219.713 289.097 245.626C271.78 271.539 247.167 291.735 218.372 303.66C189.576 315.584 157.892 318.702 127.324 312.619C96.7569 306.536 68.6798 291.526 46.6436 269.485C24.6074 247.445 9.60197 219.365 3.52477 188.796C-2.55243 158.228 0.571604 126.544 12.5018 97.7506C24.432 68.9576 44.6326 44.3489 70.5489 27.0366Z" fill="white" stroke="black"/>
</g>
<defs>
<clipPath id="clip0_493_673">
<rect width="1276.24" height="316.16" fill="white"/>
</clipPath>
</defs>
</svg>
