<svg width="583" height="99" viewBox="0 0 583 99" fill="none" xmlns="http://www.w3.org/2000/svg">
<path d="M122.275 24.7627H105.255V15.2427H147.586V24.7627H130.634V81.226H122.275V24.7627Z" fill="#0099CC"/>
<path d="M150.118 34.7533L150.634 40.8764C152.751 36.095 156.337 33.7114 161.368 33.7114C165.065 33.7114 168.079 35.0245 170.399 37.665L166.925 46.1431C165.099 44.2591 162.948 43.317 160.483 43.317C157.67 43.317 155.328 44.4161 153.446 46.6141C151.575 48.8121 150.634 51.9521 150.634 56.0484V81.2257H143.015V34.7533H150.118Z" fill="#0099CC"/>
<path d="M202.758 34.7536H210.164V81.226H202.914L202.545 73.6899C201.458 76.5159 199.71 78.6854 197.29 80.1983C194.87 81.7112 192.427 82.4677 189.962 82.4677C184.438 82.4677 179.934 80.3125 176.461 76.0164C172.987 71.706 171.239 65.6971 171.239 57.9612C171.239 50.2254 173.032 44.5019 176.606 40.1916C180.18 35.8812 184.685 33.7402 190.108 33.7402C192.774 33.7402 195.228 34.4824 197.469 35.9525C199.71 37.4226 201.402 39.4922 202.534 42.1327L202.758 34.7821V34.7536ZM190.69 42.5751C187.329 42.5751 184.517 43.9881 182.253 46.8141C179.979 49.6402 178.847 53.3511 178.847 57.9327C178.847 62.5143 179.979 66.3251 182.253 69.1511C184.517 71.9772 187.329 73.3902 190.69 73.3902C194.444 73.3902 197.346 71.863 199.419 68.8229C201.492 65.7685 202.522 62.1432 202.522 57.9327C202.522 53.7222 201.492 50.1825 199.419 47.1424C197.346 44.088 194.433 42.5751 190.69 42.5751Z" fill="#0099CC"/>
<path d="M255.049 15.3286V81.2263H247.866L247.418 73.8758C244.752 79.4136 240.539 82.1683 234.768 82.1683C229.289 82.1683 224.819 80.0131 221.334 75.717C217.861 71.4066 216.113 65.4834 216.113 57.9473C216.113 50.4112 217.827 44.331 221.256 40.0777C224.684 35.8387 229.132 33.712 234.611 33.712C237.076 33.712 239.553 34.4542 242.051 35.9243C244.539 37.3944 246.331 39.4354 247.418 42.0046V15.3286H255.037H255.049ZM235.284 42.8609C231.934 42.8609 229.166 44.2311 226.992 46.9572C224.819 49.6976 223.732 53.3515 223.732 57.933C223.732 62.5146 224.819 66.197 226.992 68.9659C229.166 71.7349 231.922 73.1193 235.284 73.1193C238.645 73.1193 241.233 71.7063 243.497 68.8803C245.76 66.0543 246.903 62.4147 246.903 57.9473C246.903 53.4799 245.771 49.9402 243.497 47.1C241.222 44.2739 238.488 42.8609 235.284 42.8609Z" fill="#0099CC"/>
<path d="M268.931 61.801C269.278 65.3834 270.511 68.2237 272.628 70.3361C274.746 72.4485 277.491 73.4904 280.841 73.4904C282.858 73.4904 284.864 73.048 286.836 72.1773C288.808 71.2924 290.343 70.0792 291.43 68.4949L296.382 74.618C294.556 77.2014 292.225 79.1567 289.39 80.5127C286.556 81.8686 283.654 82.5394 280.696 82.5394C274.724 82.5394 269.951 80.3128 266.376 75.8454C262.802 71.378 261.009 65.412 261.009 57.933C261.009 50.4541 262.791 45.0161 266.343 40.4916C269.894 35.9671 274.511 33.6978 280.18 33.6978C285.85 33.6978 290.298 35.7388 293.648 39.8208C296.998 43.9028 298.679 49.8403 298.679 57.6333C298.679 58.5182 298.634 59.9027 298.533 61.7867H268.931V61.801ZM291.205 53.5941C290.959 49.9545 289.883 47.1713 287.99 45.2445C286.085 43.3319 283.564 42.3756 280.404 42.3756C277.491 42.3756 275.026 43.3319 272.998 45.2445C270.97 47.157 269.67 49.9402 269.077 53.5941H291.205Z" fill="#0099CC"/>
<path d="M343.016 15.3286V81.2263H335.834L335.386 73.8758C332.719 79.4136 328.506 82.1683 322.736 82.1683C317.257 82.1683 312.786 80.0131 309.301 75.717C305.828 71.4066 304.08 65.4834 304.08 57.9473C304.08 50.4112 305.794 44.331 309.223 40.0777C312.652 35.8387 317.1 33.712 322.579 33.712C325.044 33.712 327.52 34.4542 330.019 35.9243C332.506 37.3944 334.299 39.4354 335.386 42.0046V15.3286H343.005H343.016ZM323.251 42.8609C319.89 42.8609 317.133 44.2311 314.96 46.9572C312.786 49.6976 311.699 53.3515 311.699 57.933C311.699 62.5146 312.786 66.197 314.96 68.9659C317.133 71.7349 319.89 73.1193 323.251 73.1193C326.612 73.1193 329.201 71.7063 331.464 68.8803C333.727 66.0543 334.87 62.4147 334.87 57.9473C334.87 53.4799 333.738 49.9402 331.464 47.1C329.189 44.2597 326.456 42.8609 323.251 42.8609Z" fill="#0099CC"/>
<path d="M354.12 40.7339C357.593 36.1095 362.12 33.8115 367.7 33.8115C373.279 33.8115 377.829 36.1237 381.358 40.7339C384.887 45.3583 386.647 51.1245 386.647 58.0325C386.647 64.9406 384.91 70.8638 381.425 75.4311C377.952 79.9842 373.369 82.2678 367.7 82.2678C362.03 82.2678 357.47 79.9842 354.041 75.4311C350.613 70.8781 348.898 65.0833 348.898 58.0325C348.898 50.9817 350.635 45.3583 354.12 40.7339ZM367.7 42.7606C364.338 42.7606 361.638 44.245 359.599 47.1852C357.548 50.1397 356.529 53.7507 356.529 58.0325C356.529 62.3144 357.548 65.9111 359.599 68.8228C361.649 71.7487 364.349 73.2046 367.7 73.2046C371.05 73.2046 373.829 71.7487 375.879 68.8228C377.929 65.8969 378.949 62.3001 378.949 58.0325C378.949 53.765 377.896 50.2253 375.8 47.2423C373.705 44.2592 371.005 42.7606 367.7 42.7606Z" fill="#0099CC"/>
<path d="M400.652 34.9391V60.0164C400.652 64.0985 401.515 67.3527 403.24 69.7791C404.966 72.2055 407.408 73.4044 410.568 73.4044C413.526 73.4044 415.957 72.0484 417.862 69.3509C419.755 66.6533 420.708 63.3135 420.708 59.3599V34.9391H428.327V81.3258H421.447L420.999 74.8174C417.593 79.8414 413.403 82.3534 408.417 82.3534C403.834 82.3534 400.114 80.3695 397.279 76.4159C394.444 72.4624 393.021 67.0244 393.021 60.1021V34.9248H400.641L400.652 34.9391Z" fill="#0099CC"/>
<path d="M441.963 15.3286V42.0046C443.05 39.4354 444.831 37.3944 447.33 35.9243C449.817 34.4542 452.305 33.712 454.77 33.712C460.193 33.712 464.641 35.8387 468.092 40.0777C471.543 44.3168 473.268 50.2828 473.268 57.9473C473.268 65.6118 471.532 71.4066 468.047 75.717C464.562 80.0274 460.092 82.1683 454.613 82.1683C448.842 82.1683 444.618 79.3994 441.963 73.8758L441.515 81.2263H434.333V15.3286H441.952H441.963ZM462.31 46.9572C460.092 44.2168 457.347 42.8609 454.097 42.8609C450.848 42.8609 448.08 44.2739 445.806 47.1C443.531 49.926 442.4 53.537 442.4 57.9473C442.4 62.3576 443.52 66.0543 445.772 68.8803C448.013 71.7063 450.792 73.1193 454.097 73.1193C457.403 73.1193 460.092 71.7349 462.31 68.9659C464.529 66.197 465.638 62.5289 465.638 57.933C465.638 53.3372 464.529 49.6833 462.31 46.9572Z" fill="#0099CC"/>
<path d="M487.15 15.3286V81.2263H479.531V15.3286H487.15Z" fill="#0099CC"/>
<path d="M501.336 61.801C501.683 65.3834 502.916 68.2237 505.033 70.3361C507.151 72.4485 509.896 73.4904 513.246 73.4904C515.263 73.4904 517.269 73.048 519.241 72.1773C521.213 71.2924 522.748 70.0792 523.834 68.4949L528.787 74.618C526.96 77.2014 524.63 79.1567 521.795 80.5127C518.96 81.8686 516.058 82.5394 513.1 82.5394C507.128 82.5394 502.355 80.3128 498.781 75.8454C495.207 71.378 493.414 65.412 493.414 57.933C493.414 50.4541 495.196 45.0161 498.736 40.4916C502.288 35.9671 506.904 33.6978 512.574 33.6978C518.243 33.6978 522.692 35.7388 526.042 39.8208C529.392 43.9028 531.072 49.8403 531.072 57.6333C531.072 58.5182 531.028 59.9027 530.927 61.7867H501.324L501.336 61.801ZM523.61 53.5941C523.364 49.9545 522.288 47.1713 520.395 45.2445C518.49 43.3319 515.969 42.3756 512.809 42.3756C509.896 42.3756 507.431 43.3319 505.403 45.2445C503.375 47.157 502.075 49.9402 501.481 53.5941H523.61Z" fill="#0099CC"/>
<path d="M544.719 34.7533L545.235 40.8764C547.352 36.095 550.938 33.7114 555.969 33.7114C559.666 33.7114 562.68 35.0245 565 37.665L561.526 46.1431C559.7 44.2591 557.549 43.317 555.084 43.317C552.271 43.317 549.93 44.4161 548.058 46.6141C546.187 48.8121 545.246 51.9521 545.246 56.0484V81.2257H537.627V34.7533H544.731H544.719Z" fill="#0099CC"/>
<path d="M54.2747 15.1998C53.3783 15.1427 52.6052 15.0856 51.9329 15H20V27.2889H37.2662V67.5669H46.9133V27.2889H57.4568C60.5156 27.2889 63.44 28.3166 66.017 30.2291C65.3335 25.4905 62.8797 15.6994 54.2747 15.1998Z" fill="#0099CC"/>
<path d="M82.073 35.9667C80.7285 31.8276 78.7789 28.1166 76.2915 24.948C73.8041 21.7795 70.8909 19.296 67.6416 17.5833C65.636 16.5271 63.5631 15.7849 61.4343 15.3853C63.9441 17.4834 68.2578 22.5217 68.5379 32.5412C68.8517 32.898 69.1654 33.2548 69.4679 33.6402C72.6836 37.7365 74.4539 43.1745 74.4539 48.955C74.4539 54.7355 72.6836 60.1877 69.4679 64.2697C66.2522 68.366 61.9833 70.6211 57.4454 70.6211H37.2549V82.91H57.4454C60.9637 82.91 64.3923 82.0394 67.6416 80.3267C70.8909 78.6139 73.8041 76.1304 76.2915 72.9619C78.7789 69.7933 80.7285 66.0824 82.073 61.9433C83.4176 57.8041 84.101 53.4366 84.101 48.955C84.101 44.4733 83.4176 40.1058 82.073 35.9667Z" fill="white"/>
</svg>
