<svg width="30" height="30" viewBox="0 0 19 29" fill="none" xmlns="http://www.w3.org/2000/svg">
<g id="Group 29">
<path id="Vector" d="M3.69995 28L9.09996 25.3L14.5 28V15.1375C13.0669 16.4201 11.1745 17.2 9.09996 17.2C7.02541 17.2 5.13298 16.4201 3.69995 15.1375V28Z" stroke="#0095FF" stroke-width="2" stroke-linecap="round" stroke-linejoin="round"/>
<path id="Vector_2" d="M17.2 9.10001C17.2 11.499 16.1571 13.6543 14.5 15.1375C13.067 16.4201 11.1746 17.2 9.10001 17.2C7.02546 17.2 5.13303 16.4201 3.7 15.1375C2.04288 13.6543 1 11.499 1 9.10001C1 4.6265 4.62651 1 9.10001 1C13.5735 1 17.2 4.6265 17.2 9.10001Z" stroke="#0095FF" stroke-width="2" stroke-linecap="round" stroke-linejoin="round"/>
<path id="Vector_3" d="M9.1 12.475H7.75M9.1 12.475V5.72501L7.75 6.40001L9.1 12.475ZM9.1 12.475H10.45H9.1Z" stroke="#0095FF" stroke-width="2" stroke-linecap="round" stroke-linejoin="round"/>
</g>
</svg>
