<svg xmlns="http://www.w3.org/2000/svg" width="58" height="47" viewBox="0 0 58 47" fill="none">
  <g opacity="0.84992">
    <path d="M43.6973 9.50321C41.2006 6.49107 37.8315 4.31974 34.0499 3.28559C30.2684 2.25145 26.2585 2.40489 22.5677 3.72497C18.8769 5.04506 15.685 7.46745 13.4278 10.6615C11.1705 13.8556 9.95788 17.6657 9.95532 21.5716V26.7538" stroke="white" stroke-opacity="0.4" stroke-width="4.92496" stroke-linecap="round" stroke-linejoin="round"/>
    <path d="M16.0117 37.7568C18.6299 40.5201 22.0206 42.4369 25.7448 43.259C29.4691 44.0811 33.3554 43.7707 36.9005 42.368C40.4455 40.9651 43.4862 38.5346 45.6288 35.3911C47.7713 32.2475 48.9172 28.5357 48.9178 24.7361V21.286" stroke="white" stroke-opacity="0.4" stroke-width="4.92496" stroke-linecap="round" stroke-linejoin="round"/>
    <path d="M18.5805 18.2664C18.5696 18.4741 18.5007 18.6759 18.3779 18.8511L10.3068 30.24C10.0841 30.5528 9.71764 30.7316 9.33321 30.7116C8.94879 30.6915 8.60307 30.4755 8.41447 30.1412L1.58269 17.9744C1.38469 17.6203 1.39408 17.1862 1.61091 16.8419C1.82633 16.4959 2.21188 16.2958 2.61864 16.317L17.5216 17.095C17.9284 17.1162 18.2908 17.3553 18.4688 17.7218C18.5538 17.8945 18.5903 18.0824 18.5805 18.2664Z" fill="white"/>
    <path d="M39.8515 28.6356C39.8587 28.4304 39.9232 28.2301 40.0412 28.0553L47.8074 16.6804C48.0217 16.3679 48.3803 16.1852 48.7598 16.1984C49.1395 16.2116 49.4843 16.4187 49.6761 16.7453L56.6268 28.6321C56.8283 28.9781 56.8265 29.4065 56.6185 29.75C56.412 30.095 56.0351 30.299 55.6334 30.285L40.9165 29.7731C40.5149 29.7592 40.1531 29.5294 39.9712 29.1709C39.8843 29.0021 39.8451 28.8173 39.8515 28.6356Z" fill="white"/>
  </g>
</svg>