<svg width="34" height="33" viewBox="0 0 34 33" fill="none" xmlns="http://www.w3.org/2000/svg">
<path fill-rule="evenodd" clip-rule="evenodd" d="M29.5255 17.053C28.6393 15.8199 26.8563 15.4929 25.543 16.3227L15.3855 22.7424C14.5731 23.2557 13.9961 24.0367 13.7686 24.9307L13.0882 27.6053C12.7784 28.8231 13.6124 30.0392 14.9228 30.28L17.7419 30.7981C18.7769 30.9884 19.8494 30.7786 20.7162 30.2165L30.837 23.6314C32.1284 22.7939 32.4603 21.137 31.5817 19.9143L29.5255 17.053ZM26.4183 17.5406C27.0152 17.1635 27.8257 17.3121 28.2285 17.8726L30.2847 20.7339C30.6841 21.2896 30.5332 22.0428 29.9462 22.4235L27.9146 23.741L24.383 18.8267L26.4183 17.5406ZM23.086 19.6462L16.2607 23.9603C15.7733 24.2683 15.4271 24.7368 15.2906 25.2733L14.6102 27.9478C14.5069 28.3538 14.7849 28.7591 15.2217 28.8394L18.0408 29.3575C18.6618 29.4717 19.3053 29.3458 19.8254 29.0085L26.6281 24.5753L23.086 19.6462Z" fill="white"/>
<path d="M22.6885 18.7699V9.41289C22.6885 8.9244 22.5097 8.45279 22.1858 8.08706L16.5077 1.67418C16.1281 1.24545 15.583 1 15.0103 1H11.8442H5C2.79086 1 1 2.79086 1 5V22.5157C1 24.7248 2.79086 26.5157 5 26.5157H14.0712" stroke="white" stroke-width="1.5"/>
<path d="M15.9106 1.6377V6.65451C15.9106 7.75908 16.8061 8.65451 17.9106 8.65451H22.0105" stroke="white" stroke-width="1.5" stroke-linecap="round"/>
<path d="M6.42236 13.7578H17.2666" stroke="white" stroke-width="1.5" stroke-linecap="round"/>
<path d="M6.42236 20.1367H11.8445" stroke="white" stroke-width="1.5" stroke-linecap="round"/>
</svg>
