<svg width="30" height="30" viewBox="0 0 25 30" fill="none" xmlns="http://www.w3.org/2000/svg">
<g id="Group 34">
<path id="Vector" d="M23.4 17.1V2.4C23.4 1.6268 22.7732 1 22 1H2.4C1.6268 1 1 1.6268 1 2.4V27.6C1 28.3732 1.6268 29 2.4 29H10.1" stroke="#0095FF" stroke-width="2" stroke-linecap="round" stroke-linejoin="round"/>
<path id="Vector_2" d="M7.30005 6.6H17.1" stroke="#0095FF" stroke-width="2" stroke-linecap="round" stroke-linejoin="round"/>
<path id="Vector_3" d="M7.30005 12.2H17.1" stroke="#0095FF" stroke-width="2" stroke-linecap="round" stroke-linejoin="round"/>
<path id="Vector_4" d="M7.30005 17.8H11.5" stroke="#0095FF" stroke-width="2" stroke-linecap="round" stroke-linejoin="round"/>
<path id="Vector_5" d="M22.7 29L20.2749 26.5748L22.7 29ZM20.2749 26.5748C20.9083 25.9415 21.3 25.0665 21.3 24.1C21.3 22.167 19.733 20.6 17.8 20.6C15.8671 20.6 14.3 22.167 14.3 24.1C14.3 26.033 15.8671 27.6 17.8 27.6C18.7665 27.6 19.6415 27.2083 20.2749 26.5748Z" stroke="#0095FF" stroke-width="2" stroke-linecap="round" stroke-linejoin="round"/>
</g>
</svg>
