<svg xmlns="http://www.w3.org/2000/svg" id="Layer_1" data-name="Layer 1" version="1.1" viewBox="0 0 1024 1024">
  <defs>
    <style>
      .cls-1 {
        fill: #99e0ff;
      }

      .cls-1, .cls-2, .cls-3 {
        stroke-width: 0px;
      }

      .cls-2 {
        fill: #0095ff;
      }

      .cls-3 {
        fill: #fff;
      }
    </style>
  </defs>
  <path class="cls-2" d="M49.3,535.3h29.4c-5,7.9-6.1,15.8-6.1,19.7,0,9.3,4.8,20.2,18.6,20.2s20.8-10,20.8-29.9v-70.6h31.7v70.6c0,38.5-19,56.8-52,56.8s-49.8-24.7-49.8-43.7,2.5-16.5,7.3-23.1Z"/>
  <path class="cls-2" d="M209.3,602.1c-28.8,0-52.3-21.5-52.3-48.4s23.5-48.4,52.3-48.4,52.3,21.7,52.3,48.4-23.3,48.4-52.3,48.4ZM209.3,576.6c13.3,0,22.6-9.5,22.6-22.9s-9.3-23.1-22.6-23.1-22.6,9.7-22.6,23.1,9.3,22.9,22.6,22.9Z"/>
  <path class="cls-2" d="M262.4,507.3h34.2l19.5,53.8,20.4-53.8h33.1l-58.9,132.1h-31l21-47.5-38.3-84.6Z"/>
  <path class="cls-2" d="M390.7,601.9v-125.4h57.5c27.2,0,42.1,19.7,42.1,42.5s-15.1,41.2-42.1,41.2h-25.8v41.7h-31.7ZM444.4,535.1c8.4,0,14-7.2,14-15.9s-5.6-16.5-14-16.5h-22v32.4h22Z"/>
  <path class="cls-2" d="M687.9,531v-21.9h11.8v-2c0-30.6,26.2-36.7,45-36.7s26.3,4.7,35.3,15.6l-16.1,15.4c-5.7-6.8-13.8-8.1-18.3-8.1-7,0-15.4,3.9-15.4,13.8v2h72.6v92.8h-30.8v-71h-41.4v71h-30.8v-71h-11.8Z"/>
  <path class="cls-2" d="M864.2,602.1c-16.3,0-33.7-6.3-33.7-33.3v-38.2h-13.4v-23.3h16.1l4.1-22.8h23.8v22.8h24.4v23.3h-24.4v39.8c0,4.1,1.8,7.2,5.9,7.2s6.3-4.1,6.3-8.1-.9-6.8-1.4-8.1h22c1.8,3.2,2.5,7.5,2.7,11.1,0,18.6-12.9,29.6-32.4,29.6Z"/>
  <path class="cls-2" d="M924.7,567c2.3,9.9,10.4,12.7,17.7,12.7s10.8-1.8,10.8-6.1-1.6-3.9-6.6-6.1l-15.4-6.5c-14.7-5.4-24.7-14.5-24.7-27.6s17-28.1,37.8-28.1,27.2,4.3,35.3,21.1l-23.1,8.8c-2.3-6.8-8.8-8.2-12.5-8.2s-8.8,2.5-8.8,6.3,3,5,7.7,6.6l12.4,5c21.5,7.9,26.9,18.8,26.9,28.7,0,18.6-18.8,28.5-40,28.5s-34.8-6.5-39.8-26.2l22.4-9Z"/>
  <path class="cls-1" d="M569.8,391.6s-63,113.4,63.6,169.4c.2.2-46.4-58.8,4.3-131-14.7-6.8-68-38.4-68-38.4Z"/>
  <path class="cls-3" d="M571.8,405.1s-30.1,62.4,10.9,110.1c0,0-29.7-39.5-7.5-100.4,16.2,8.6,37.2,18.8,37.2,18.8,0,0-15.5,37.7-9.1,61.5,0,.1,2.3-39,22.6-62.7l-54.1-27.4Z"/>
  <ellipse class="cls-3" cx="586.2" cy="467.7" rx="12.2" ry="20.1"/>
  <path class="cls-2" d="M581.3,391.6l8-7,81.1,44.5-7.5,6.4,21.4,12s-44.9,25-46.4,86.3c0,0-7.1-47.7,27.8-83.1l-11.3-7.1s-43.2,33.8-23.3,103.9c0-.2-35.7-55.4,18.8-119l-68.6-36.9Z"/>
  <path class="cls-2" d="M639.5,535.9l7.8-25.7s29.3,12.5,29.3,43.6-1.2,12.6-3.6,17.9c-3.2,7.2-8.1,12.9-10.2,14.9-10.8,10.8-25.1,15.5-38.2,15.5s-23.1-2.5-34-11.3c-11.2-9-20.9-23.9-17.9-44.8,2.2.6,30.5,16.1,30.5,16.1,0,0,4.2,15.8,23.9,14.3,7.8-.6,16.7-6,19.1-16.1,1.8-7.8,1.2-16.7-6.6-24.5Z"/>
  <path class="cls-2" d="M534,529c3-17.6,19-21.9,25.8-21.9s3.2,0,6.3.5v30.1c-4.1-1.1-9.1-1.3-11.6-1.3-12,0-19.4,7.7-19.4,19v46.4h-30.8v-92.8h29.7v19.9Z"/>
</svg>