<svg xmlns="http://www.w3.org/2000/svg" id="Layer_1" data-name="Layer 1" viewBox="0 0 1024 338">
  <defs>
    <style>
      .cls-1 {
        fill: #99e0ff;
      }

      .cls-1, .cls-2, .cls-3 {
        stroke-width: 0px;
      }

      .cls-2 {
        fill: #0095ff;
      }

      .cls-3 {
        fill: #fff;
      }
    </style>
  </defs>
  <path class="cls-2" d="M49.35,192.25h29.38c-5.02,7.88-6.09,15.77-6.09,19.71,0,9.32,4.84,20.25,18.63,20.25,14.69,0,20.78-10.03,20.78-29.92v-70.59h31.71v70.59c0,38.52-18.99,56.8-51.96,56.8-37.45,0-49.81-24.73-49.81-43.72,0-7.7,2.51-16.48,7.35-23.11Z"/>
  <path class="cls-2" d="M209.35,259.09c-28.85,0-52.32-21.5-52.32-48.38s23.47-48.38,52.32-48.38,52.32,21.68,52.32,48.38-23.29,48.38-52.32,48.38ZM209.35,233.64c13.26,0,22.58-9.5,22.58-22.93s-9.32-23.11-22.58-23.11-22.58,9.68-22.58,23.11,9.32,22.93,22.58,22.93Z"/>
  <path class="cls-2" d="M262.38,164.3h34.22l19.53,53.75,20.43-53.75h33.15l-58.95,132.05h-31l20.96-47.48-38.34-84.57Z"/>
  <path class="cls-2" d="M390.67,258.91v-125.42h57.52c27.23,0,42.11,19.71,42.11,42.46s-15.05,41.21-42.11,41.21h-25.8v41.75h-31.71ZM444.42,192.08c8.42,0,13.98-7.17,13.98-15.95,0-9.32-5.55-16.48-13.98-16.48h-22.04v32.43h22.04Z"/>
  <path class="cls-2" d="M687.92,187.95v-21.86h11.83v-1.97c0-30.64,26.16-36.73,44.97-36.73,11.83,0,26.34,4.66,35.3,15.59l-16.13,15.41c-5.73-6.81-13.8-8.06-18.28-8.06-6.99,0-15.41,3.94-15.41,13.8v1.97h72.57v92.81h-30.82v-70.95h-41.39v70.95h-30.82v-70.95h-11.83Z"/>
  <path class="cls-2" d="M864.23,259.09c-16.3,0-33.68-6.27-33.68-33.33v-38.16h-13.44v-23.29h16.13l4.12-22.76h23.83v22.76h24.37v23.29h-24.37v39.78c0,4.12,1.79,7.17,5.91,7.17,4.66,0,6.27-4.12,6.27-8.06,0-3.23-.9-6.81-1.43-8.06h22.04c1.79,3.23,2.51,7.53,2.69,11.11,0,18.63-12.9,29.56-32.43,29.56Z"/>
  <path class="cls-2" d="M924.66,223.97c2.33,9.85,10.39,12.72,17.74,12.72,5.55,0,10.75-1.79,10.75-6.09,0-2.51-1.61-3.94-6.63-6.09l-15.41-6.45c-14.69-5.38-24.73-14.51-24.73-27.59,0-17.02,17.02-28.13,37.81-28.13,12.9,0,27.23,4.3,35.3,21.14l-23.11,8.78c-2.33-6.81-8.78-8.24-12.54-8.24-5.02,0-8.78,2.51-8.78,6.27,0,3.23,3.05,5.02,7.7,6.63l12.36,5.02c21.5,7.88,26.88,18.81,26.88,28.67,0,18.63-18.81,28.49-39.96,28.49-17.2,0-34.76-6.45-39.78-26.16l22.4-8.96Z"/>
  <path class="cls-1" d="M569.77,48.65s-63.03,113.43,63.64,169.44c.19.19-46.42-58.82,4.32-130.99-14.66-6.77-67.96-38.45-67.96-38.45Z"/>
  <path class="cls-3" d="M571.76,62.1s-30.07,62.39,10.9,110.13c0,0-29.69-39.47-7.52-100.35,16.16,8.64,37.21,18.79,37.21,18.79,0,0-15.48,37.73-9.05,61.53.03.12,2.29-38.97,22.58-62.65l-54.12-27.44Z"/>
  <ellipse class="cls-3" cx="586.23" cy="124.68" rx="12.22" ry="20.11"/>
  <path class="cls-2" d="M581.34,48.65l7.99-7,81.1,44.51-7.52,6.39,21.37,12.03s-44.86,24.99-46.36,86.26c0,0-7.14-47.73,27.81-83.06l-11.28-7.14s-43.22,33.81-23.3,103.92c0-.18-35.71-55.43,18.79-118.95l-68.6-36.95Z"/>
  <path class="cls-2" d="M639.49,192.91l7.76-25.68s29.26,12.54,29.26,43.6c0,6.59-1.21,12.61-3.58,17.92-3.23,7.2-8.09,12.87-10.15,14.93-10.75,10.75-25.08,15.53-38.22,15.53-8.02,0-23.08-2.54-34.04-11.35-11.23-9.02-20.9-23.89-17.92-44.79,2.23.57,30.46,16.13,30.46,16.13,0,0,4.2,15.85,23.89,14.33,7.76-.6,16.72-5.97,19.11-16.13,1.79-7.76,1.19-16.72-6.57-24.49Z"/>
  <path class="cls-2" d="M534.01,185.98c3.05-17.56,18.99-21.86,25.8-21.86,2.87,0,3.23,0,6.27.54v30.1c-4.12-1.07-9.14-1.25-11.65-1.25-12,0-19.35,7.7-19.35,18.99v46.41h-30.82v-92.81h29.74v19.89Z"/>
</svg>