<svg width="30" height="30" viewBox="0 0 32 27" fill="none" xmlns="http://www.w3.org/2000/svg">
<g id="Group 30">
<path id="Vector" d="M8.35303 5.41176V2.47059C8.35303 1.6584 9.01141 1 9.82362 1H28.9413C29.7535 1 30.4119 1.6584 30.4119 2.47059V15.7059C30.4119 16.5181 29.7535 17.1765 28.9413 17.1765H27.4707" stroke="#0095FF" stroke-width="2" stroke-linecap="round" stroke-linejoin="round"/>
<path id="Vector_2" d="M21.5882 9.82352H2.47059C1.6584 9.82352 1 10.4819 1 11.2941V24.5294C1 25.3416 1.6584 26 2.47059 26H21.5882C22.4004 26 23.0588 25.3416 23.0588 24.5294V11.2941C23.0588 10.4819 22.4004 9.82352 21.5882 9.82352Z" stroke="#0095FF" stroke-width="2" stroke-linecap="round" stroke-linejoin="round"/>
<path id="Vector_3" d="M1 16.4412H23.0588" stroke="#0095FF" stroke-width="2" stroke-linecap="round" stroke-linejoin="round"/>
<path id="Vector_4" d="M1 12.7647V21.5882" stroke="#0095FF" stroke-width="2" stroke-linecap="round" stroke-linejoin="round"/>
<path id="Vector_5" d="M6.14697 20.8529H12.0293" stroke="#0095FF" stroke-width="2" stroke-linecap="round" stroke-linejoin="round"/>
<path id="Vector_6" d="M16.4412 20.8529H17.9118" stroke="#0095FF" stroke-width="2" stroke-linecap="round" stroke-linejoin="round"/>
</g>
</svg>
