<svg width="64" height="62" viewBox="0 0 64 62" fill="none" xmlns="http://www.w3.org/2000/svg">
<path d="M23.4257 60C18.3991 58.4949 13.9247 55.7007 10.3818 51.9983C11.7035 50.423 12.5 48.3875 12.5 46.165C12.5 41.1662 8.47056 37.1139 3.5 37.1139C3.19932 37.1139 2.90209 37.1287 2.60899 37.1576C2.20969 35.1944 2 33.1617 2 31.0798C2 27.9261 2.48116 24.8853 3.37369 22.0277C3.41572 22.0283 3.45782 22.0286 3.5 22.0286C8.47056 22.0286 12.5 17.9763 12.5 12.9775C12.5 11.5424 12.1679 10.1854 11.5769 8.97989C15.0462 5.73563 19.2807 3.30771 23.9781 2C25.4666 4.93415 28.5 6.94342 32 6.94342C35.5 6.94342 38.5334 4.93415 40.0219 2C44.7193 3.30771 48.9537 5.73563 52.4231 8.97989C51.8321 10.1854 51.5 11.5424 51.5 12.9775C51.5 17.9763 55.5295 22.0286 60.5 22.0286C60.5422 22.0286 60.5843 22.0283 60.6263 22.0277C61.5188 24.8853 62 27.9261 62 31.0798C62 33.1617 61.7903 35.1944 61.391 37.1576C61.0979 37.1287 60.8007 37.1139 60.5 37.1139C55.5295 37.1139 51.5 41.1662 51.5 46.165C51.5 48.3875 52.2965 50.423 53.6182 51.9983C50.0753 55.7007 45.6009 58.4949 40.5743 60C39.4142 56.3503 36.014 53.7076 32 53.7076C27.986 53.7076 24.5858 56.3503 23.4257 60Z" stroke="white" stroke-width="4" stroke-linejoin="round"/>
<path d="M32 41C37.5229 41 42 36.299 42 30.5C42 24.701 37.5229 20 32 20C26.4771 20 22 24.701 22 30.5C22 36.299 26.4771 41 32 41Z" stroke="white" stroke-width="4" stroke-linejoin="round"/>
</svg>
