<svg width="454" height="279" viewBox="0 0 454 279" fill="none" xmlns="http://www.w3.org/2000/svg">
<g clip-path="url(#clip0_1_1666)">
<path fill-rule="evenodd" clip-rule="evenodd" d="M449.614 55.7783C449.614 24.9725 424.37 0.00305176 393.223 0.00305176H56.388C25.2409 0.00305176 -0.00305176 24.9725 -0.00305176 55.7783V869.226C-0.00305176 900.032 25.2409 925.001 56.388 925.001H393.223C424.37 925.001 449.614 900.032 449.614 869.226V55.7783ZM449.618 330.37H451.851C453.037 330.37 453.998 331.332 453.998 332.518V392.936C453.998 394.122 453.037 395.084 451.851 395.084H449.618V330.37ZM451.851 157.259H449.618V275.663H451.851C453.037 275.663 453.998 274.702 453.998 273.516V159.406C453.998 158.22 453.037 157.259 451.851 157.259Z" fill="black"/>
<path fill-rule="evenodd" clip-rule="evenodd" d="M440.21 55.7758V869.224C440.21 894.881 419.17 915.694 393.223 915.694H56.388C30.4407 915.694 9.40112 894.881 9.40112 869.224V55.7758C9.40112 30.1181 30.4407 9.30566 56.388 9.30566H393.223C419.17 9.30566 440.21 30.1181 440.21 55.7758Z" fill="black"/>
<path fill-rule="evenodd" clip-rule="evenodd" d="M430.551 55.7765V869.224C430.551 889.596 413.837 906.114 393.226 906.114H56.3917C35.7814 906.114 19.0667 889.596 19.0667 869.224V55.7765C19.0667 35.4045 35.7814 18.8866 56.3917 18.8866H393.226C413.837 18.8866 430.551 35.4045 430.551 55.7765Z" fill="white"/>
<path d="M224.813 46.3559C230.704 46.3559 235.48 41.6306 235.48 35.8016C235.48 29.9727 230.704 25.2474 224.813 25.2474C218.922 25.2474 214.146 29.9727 214.146 35.8016C214.146 41.6306 218.922 46.3559 224.813 46.3559Z" fill="black"/>
</g>
<defs>
<clipPath id="clip0_1_1666">
<rect width="454" height="925" fill="white"/>
</clipPath>
</defs>
</svg>
