<svg width="370" height="341" viewBox="0 0 370 341" fill="none" xmlns="http://www.w3.org/2000/svg">
<g filter="url(#filter0_d_786_2520)">
<rect x="31" y="175" width="141" height="128.796" rx="10" fill="white"/>
<rect x="31.5" y="175.5" width="140" height="127.796" rx="9.5" stroke="#0095FF"/>
</g>
<path d="M75.069 285.128C74.2157 285.128 73.3997 285 72.621 284.744C71.8423 284.477 71.229 284.136 70.781 283.72L71.373 282.472C71.7997 282.845 72.3437 283.155 73.005 283.4C73.6663 283.645 74.3543 283.768 75.069 283.768C75.7197 283.768 76.2477 283.693 76.653 283.544C77.0583 283.395 77.357 283.192 77.549 282.936C77.741 282.669 77.837 282.371 77.837 282.04C77.837 281.656 77.709 281.347 77.453 281.112C77.2077 280.877 76.8823 280.691 76.477 280.552C76.0823 280.403 75.645 280.275 75.165 280.168C74.685 280.061 74.1997 279.939 73.709 279.8C73.229 279.651 72.7863 279.464 72.381 279.24C71.9863 279.016 71.6663 278.717 71.421 278.344C71.1757 277.96 71.053 277.469 71.053 276.872C71.053 276.296 71.2023 275.768 71.501 275.288C71.8103 274.797 72.2797 274.408 72.909 274.12C73.549 273.821 74.3597 273.672 75.341 273.672C75.9917 273.672 76.637 273.757 77.277 273.928C77.917 274.099 78.4717 274.344 78.941 274.664L78.413 275.944C77.933 275.624 77.4263 275.395 76.893 275.256C76.3597 275.107 75.8423 275.032 75.341 275.032C74.7117 275.032 74.1943 275.112 73.789 275.272C73.3837 275.432 73.085 275.645 72.893 275.912C72.7117 276.179 72.621 276.477 72.621 276.808C72.621 277.203 72.7437 277.517 72.989 277.752C73.245 277.987 73.5703 278.173 73.965 278.312C74.3703 278.451 74.813 278.579 75.293 278.696C75.773 278.803 76.253 278.925 76.733 279.064C77.2237 279.203 77.6663 279.384 78.061 279.608C78.4663 279.832 78.7917 280.131 79.037 280.504C79.2823 280.877 79.405 281.357 79.405 281.944C79.405 282.509 79.2503 283.037 78.941 283.528C78.6317 284.008 78.1517 284.397 77.501 284.696C76.861 284.984 76.0503 285.128 75.069 285.128ZM85.0865 285.096C84.3612 285.096 83.7212 284.963 83.1665 284.696C82.6225 284.429 82.1958 284.024 81.8865 283.48C81.5878 282.925 81.4385 282.232 81.4385 281.4V276.52H82.9745V281.224C82.9745 282.056 83.1718 282.68 83.5665 283.096C83.9718 283.512 84.5372 283.72 85.2625 283.72C85.7958 283.72 86.2598 283.613 86.6545 283.4C87.0492 283.176 87.3532 282.856 87.5665 282.44C87.7798 282.013 87.8865 281.501 87.8865 280.904V276.52H89.4225V285H87.9665V282.712L88.2065 283.32C87.9292 283.885 87.5132 284.323 86.9585 284.632C86.4038 284.941 85.7798 285.096 85.0865 285.096ZM92.3466 285V276.52H93.8186V278.824L93.6746 278.248C93.9093 277.661 94.304 277.213 94.8586 276.904C95.4133 276.595 96.096 276.44 96.9066 276.44V277.928C96.8426 277.917 96.7786 277.912 96.7146 277.912C96.6613 277.912 96.608 277.912 96.5546 277.912C95.7333 277.912 95.0826 278.157 94.6026 278.648C94.1226 279.139 93.8826 279.848 93.8826 280.776V285H92.3466ZM101.368 285L97.6555 276.52H99.2555L102.552 284.2H101.784L105.144 276.52H106.648L102.936 285H101.368ZM111.623 285.096C110.716 285.096 109.916 284.909 109.223 284.536C108.54 284.163 108.007 283.651 107.623 283C107.249 282.349 107.063 281.603 107.063 280.76C107.063 279.917 107.244 279.171 107.607 278.52C107.98 277.869 108.487 277.363 109.127 277C109.777 276.627 110.508 276.44 111.319 276.44C112.14 276.44 112.865 276.621 113.495 276.984C114.124 277.347 114.615 277.859 114.967 278.52C115.329 279.171 115.511 279.933 115.511 280.808C115.511 280.872 115.505 280.947 115.495 281.032C115.495 281.117 115.489 281.197 115.479 281.272H108.263V280.168H114.679L114.055 280.552C114.065 280.008 113.953 279.523 113.719 279.096C113.484 278.669 113.159 278.339 112.743 278.104C112.337 277.859 111.863 277.736 111.319 277.736C110.785 277.736 110.311 277.859 109.895 278.104C109.479 278.339 109.153 278.675 108.919 279.112C108.684 279.539 108.567 280.029 108.567 280.584V280.84C108.567 281.405 108.695 281.912 108.951 282.36C109.217 282.797 109.585 283.139 110.055 283.384C110.524 283.629 111.063 283.752 111.671 283.752C112.172 283.752 112.625 283.667 113.031 283.496C113.447 283.325 113.809 283.069 114.119 282.728L114.967 283.72C114.583 284.168 114.103 284.509 113.527 284.744C112.961 284.979 112.327 285.096 111.623 285.096ZM117.855 288.2C117.45 288.2 117.055 288.131 116.671 287.992C116.287 287.864 115.957 287.672 115.679 287.416L116.335 286.264C116.549 286.467 116.783 286.621 117.039 286.728C117.295 286.835 117.567 286.888 117.855 286.888C118.229 286.888 118.538 286.792 118.783 286.6C119.029 286.408 119.258 286.067 119.471 285.576L119.999 284.408L120.159 284.216L123.487 276.52H124.991L120.879 285.848C120.634 286.445 120.357 286.915 120.047 287.256C119.749 287.597 119.418 287.837 119.055 287.976C118.693 288.125 118.293 288.2 117.855 288.2ZM119.871 285.272L115.999 276.52H117.599L120.895 284.072L119.871 285.272ZM128.747 285.096C128.043 285.096 127.371 285 126.731 284.808C126.102 284.616 125.606 284.381 125.243 284.104L125.883 282.888C126.246 283.133 126.694 283.341 127.227 283.512C127.761 283.683 128.305 283.768 128.859 283.768C129.574 283.768 130.086 283.667 130.395 283.464C130.715 283.261 130.875 282.979 130.875 282.616C130.875 282.349 130.779 282.141 130.587 281.992C130.395 281.843 130.139 281.731 129.819 281.656C129.51 281.581 129.163 281.517 128.779 281.464C128.395 281.4 128.011 281.325 127.627 281.24C127.243 281.144 126.891 281.016 126.571 280.856C126.251 280.685 125.995 280.456 125.803 280.168C125.611 279.869 125.515 279.475 125.515 278.984C125.515 278.472 125.659 278.024 125.947 277.64C126.235 277.256 126.641 276.963 127.163 276.76C127.697 276.547 128.326 276.44 129.051 276.44C129.606 276.44 130.166 276.509 130.731 276.648C131.307 276.776 131.777 276.963 132.139 277.208L131.483 278.424C131.099 278.168 130.699 277.992 130.283 277.896C129.867 277.8 129.451 277.752 129.035 277.752C128.363 277.752 127.862 277.864 127.531 278.088C127.201 278.301 127.035 278.579 127.035 278.92C127.035 279.208 127.131 279.432 127.323 279.592C127.526 279.741 127.782 279.859 128.091 279.944C128.411 280.029 128.763 280.104 129.147 280.168C129.531 280.221 129.915 280.296 130.299 280.392C130.683 280.477 131.03 280.6 131.339 280.76C131.659 280.92 131.915 281.144 132.107 281.432C132.31 281.72 132.411 282.104 132.411 282.584C132.411 283.096 132.262 283.539 131.963 283.912C131.665 284.285 131.243 284.579 130.699 284.792C130.155 284.995 129.505 285.096 128.747 285.096Z" fill="#23303B"/>
<path d="M99.2606 223.543C99.8529 222.964 99.8636 222.014 99.2845 221.422C98.7053 220.83 97.7556 220.819 97.1633 221.398L99.2606 223.543ZM94.1 226.491L93.0513 227.564C93.6343 228.133 94.5657 228.133 95.1487 227.564L94.1 226.491ZM92.682 223.007C92.0896 222.428 91.14 222.438 90.5608 223.031C89.9816 223.623 89.9923 224.573 90.5847 225.152L92.682 223.007ZM103.967 222.176C103.138 222.176 102.467 222.848 102.467 223.676C102.467 224.505 103.138 225.176 103.967 225.176V222.176ZM111.367 225.176C112.195 225.176 112.867 224.505 112.867 223.676C112.867 222.848 112.195 222.176 111.367 222.176V225.176ZM99.2606 233.19C99.8529 232.611 99.8636 231.661 99.2845 231.069C98.7053 230.477 97.7556 230.466 97.1633 231.045L99.2606 233.19ZM94.1 236.138L93.0513 237.211C93.6343 237.781 94.5657 237.781 95.1487 237.211L94.1 236.138ZM92.682 232.654C92.0896 232.075 91.14 232.085 90.5608 232.678C89.9816 233.27 89.9923 234.22 90.5847 234.799L92.682 232.654ZM103.967 234.235C103.138 234.235 102.467 234.907 102.467 235.735C102.467 236.564 103.138 237.235 103.967 237.235V234.235ZM111.367 237.235C112.195 237.235 112.867 236.564 112.867 235.735C112.867 234.907 112.195 234.235 111.367 234.235V237.235ZM109.83 211.755L111.219 212.323V212.323L109.83 211.755ZM93.1697 211.755L91.7813 212.323V212.323L93.1697 211.755ZM118.5 215.235V241.765H121.5V215.235H118.5ZM112.6 247.5H90.4V250.5H112.6V247.5ZM84.5 241.765V215.235H81.5V241.765H84.5ZM112.6 206.5H90.4V209.5H112.6V206.5ZM90.4 247.5C87.1095 247.5 84.5 244.901 84.5 241.765H81.5C81.5 246.621 85.5167 250.5 90.4 250.5V247.5ZM118.5 241.765C118.5 244.901 115.89 247.5 112.6 247.5V250.5C117.483 250.5 121.5 246.621 121.5 241.765H118.5ZM121.5 215.235C121.5 210.379 117.483 206.5 112.6 206.5V209.5C115.89 209.5 118.5 212.099 118.5 215.235H121.5ZM84.5 215.235C84.5 212.099 87.1095 209.5 90.4 209.5V206.5C85.5167 206.5 81.5 210.379 81.5 215.235H84.5ZM97.1633 221.398L93.0513 225.418L95.1487 227.564L99.2606 223.543L97.1633 221.398ZM95.1487 225.418L92.682 223.007L90.5847 225.152L93.0513 227.564L95.1487 225.418ZM103.967 225.176H111.367V222.176H103.967V225.176ZM97.1633 231.045L93.0513 235.066L95.1487 237.211L99.2606 233.19L97.1633 231.045ZM95.1487 235.066L92.682 232.654L90.5847 234.799L93.0513 237.211L95.1487 235.066ZM103.967 237.235H111.367V234.235H103.967V237.235ZM109.978 207.432L108.442 211.187L111.219 212.323L112.755 208.568L109.978 207.432ZM106.395 212.529H96.605V215.529H106.395V212.529ZM94.558 211.187L93.0216 207.432L90.245 208.568L91.7813 212.323L94.558 211.187ZM96.605 212.529C95.6854 212.529 94.8833 211.983 94.558 211.187L91.7813 212.323C92.5798 214.275 94.4987 215.529 96.605 215.529V212.529ZM108.442 211.187C108.117 211.983 107.315 212.529 106.395 212.529V215.529C108.501 215.529 110.42 214.275 111.219 212.323L108.442 211.187Z" fill="#0095FF"/>
<g filter="url(#filter1_d_786_2520)">
<rect x="196" y="175" width="141" height="128.796" rx="10" fill="white"/>
<rect x="196.5" y="175.5" width="140" height="127.796" rx="9.5" stroke="#0095FF"/>
</g>
<path d="M224.563 285V273.8H225.875L230.899 282.264H230.195L235.155 273.8H236.467L236.483 285H234.947L234.931 276.216H235.299L230.883 283.64H230.147L225.699 276.216H226.099V285H224.563ZM239.62 285V276.52H241.156V285H239.62ZM240.388 274.888C240.089 274.888 239.839 274.792 239.636 274.6C239.444 274.408 239.348 274.173 239.348 273.896C239.348 273.608 239.444 273.368 239.636 273.176C239.839 272.984 240.089 272.888 240.388 272.888C240.687 272.888 240.932 272.984 241.124 273.176C241.327 273.357 241.428 273.587 241.428 273.864C241.428 274.152 241.332 274.397 241.14 274.6C240.948 274.792 240.697 274.888 240.388 274.888ZM247.785 285.096C246.921 285.096 246.147 284.909 245.465 284.536C244.793 284.163 244.265 283.651 243.881 283C243.497 282.349 243.305 281.603 243.305 280.76C243.305 279.917 243.497 279.171 243.881 278.52C244.265 277.869 244.793 277.363 245.465 277C246.147 276.627 246.921 276.44 247.785 276.44C248.553 276.44 249.235 276.595 249.833 276.904C250.441 277.203 250.91 277.651 251.241 278.248L250.073 279C249.795 278.584 249.454 278.28 249.049 278.088C248.654 277.885 248.227 277.784 247.769 277.784C247.214 277.784 246.718 277.907 246.281 278.152C245.843 278.397 245.497 278.744 245.241 279.192C244.985 279.629 244.857 280.152 244.857 280.76C244.857 281.368 244.985 281.896 245.241 282.344C245.497 282.792 245.843 283.139 246.281 283.384C246.718 283.629 247.214 283.752 247.769 283.752C248.227 283.752 248.654 283.656 249.049 283.464C249.454 283.261 249.795 282.952 250.073 282.536L251.241 283.272C250.91 283.859 250.441 284.312 249.833 284.632C249.235 284.941 248.553 285.096 247.785 285.096ZM253.229 285V276.52H254.701V278.824L254.557 278.248C254.792 277.661 255.187 277.213 255.741 276.904C256.296 276.595 256.979 276.44 257.789 276.44V277.928C257.725 277.917 257.661 277.912 257.597 277.912C257.544 277.912 257.491 277.912 257.437 277.912C256.616 277.912 255.965 278.157 255.485 278.648C255.005 279.139 254.765 279.848 254.765 280.776V285H253.229ZM263.236 285.096C262.383 285.096 261.626 284.909 260.964 284.536C260.303 284.163 259.78 283.651 259.396 283C259.012 282.339 258.82 281.592 258.82 280.76C258.82 279.917 259.012 279.171 259.396 278.52C259.78 277.869 260.303 277.363 260.964 277C261.626 276.627 262.383 276.44 263.236 276.44C264.079 276.44 264.831 276.627 265.492 277C266.164 277.363 266.687 277.869 267.06 278.52C267.444 279.16 267.636 279.907 267.636 280.76C267.636 281.603 267.444 282.349 267.06 283C266.687 283.651 266.164 284.163 265.492 284.536C264.831 284.909 264.079 285.096 263.236 285.096ZM263.236 283.752C263.78 283.752 264.266 283.629 264.692 283.384C265.13 283.139 265.471 282.792 265.716 282.344C265.962 281.885 266.084 281.357 266.084 280.76C266.084 280.152 265.962 279.629 265.716 279.192C265.471 278.744 265.13 278.397 264.692 278.152C264.266 277.907 263.78 277.784 263.236 277.784C262.692 277.784 262.207 277.907 261.78 278.152C261.354 278.397 261.012 278.744 260.756 279.192C260.5 279.629 260.372 280.152 260.372 280.76C260.372 281.357 260.5 281.885 260.756 282.344C261.012 282.792 261.354 283.139 261.78 283.384C262.207 283.629 262.692 283.752 263.236 283.752ZM272.673 285.096C271.819 285.096 271.158 284.867 270.689 284.408C270.219 283.949 269.985 283.293 269.985 282.44V274.664H271.521V282.376C271.521 282.835 271.633 283.187 271.857 283.432C272.091 283.677 272.422 283.8 272.849 283.8C273.329 283.8 273.729 283.667 274.049 283.4L274.529 284.504C274.294 284.707 274.011 284.856 273.681 284.952C273.361 285.048 273.025 285.096 272.673 285.096ZM268.545 277.784V276.52H273.953V277.784H268.545ZM281.65 285V283.208L281.57 282.872V279.816C281.57 279.165 281.378 278.664 280.994 278.312C280.62 277.949 280.055 277.768 279.298 277.768C278.796 277.768 278.306 277.853 277.826 278.024C277.346 278.184 276.94 278.403 276.61 278.68L275.97 277.528C276.407 277.176 276.93 276.909 277.538 276.728C278.156 276.536 278.802 276.44 279.474 276.44C280.636 276.44 281.532 276.723 282.162 277.288C282.791 277.853 283.106 278.717 283.106 279.88V285H281.65ZM278.866 285.096C278.236 285.096 277.682 284.989 277.202 284.776C276.732 284.563 276.37 284.269 276.114 283.896C275.858 283.512 275.73 283.08 275.73 282.6C275.73 282.141 275.836 281.725 276.05 281.352C276.274 280.979 276.631 280.68 277.122 280.456C277.623 280.232 278.295 280.12 279.138 280.12H281.826V281.224H279.202C278.434 281.224 277.916 281.352 277.65 281.608C277.383 281.864 277.25 282.173 277.25 282.536C277.25 282.952 277.415 283.288 277.746 283.544C278.076 283.789 278.535 283.912 279.122 283.912C279.698 283.912 280.199 283.784 280.626 283.528C281.063 283.272 281.378 282.899 281.57 282.408L281.874 283.464C281.671 283.965 281.314 284.365 280.802 284.664C280.29 284.952 279.644 285.096 278.866 285.096ZM288.38 285.096C287.676 285.096 287.004 285 286.364 284.808C285.735 284.616 285.239 284.381 284.876 284.104L285.516 282.888C285.879 283.133 286.327 283.341 286.86 283.512C287.394 283.683 287.938 283.768 288.492 283.768C289.207 283.768 289.719 283.667 290.028 283.464C290.348 283.261 290.508 282.979 290.508 282.616C290.508 282.349 290.412 282.141 290.22 281.992C290.028 281.843 289.772 281.731 289.452 281.656C289.143 281.581 288.796 281.517 288.412 281.464C288.028 281.4 287.644 281.325 287.26 281.24C286.876 281.144 286.524 281.016 286.204 280.856C285.884 280.685 285.628 280.456 285.436 280.168C285.244 279.869 285.148 279.475 285.148 278.984C285.148 278.472 285.292 278.024 285.58 277.64C285.868 277.256 286.274 276.963 286.796 276.76C287.33 276.547 287.959 276.44 288.684 276.44C289.239 276.44 289.799 276.509 290.364 276.648C290.94 276.776 291.41 276.963 291.772 277.208L291.116 278.424C290.732 278.168 290.332 277.992 289.916 277.896C289.5 277.8 289.084 277.752 288.668 277.752C287.996 277.752 287.495 277.864 287.164 278.088C286.834 278.301 286.668 278.579 286.668 278.92C286.668 279.208 286.764 279.432 286.956 279.592C287.159 279.741 287.415 279.859 287.724 279.944C288.044 280.029 288.396 280.104 288.78 280.168C289.164 280.221 289.548 280.296 289.932 280.392C290.316 280.477 290.663 280.6 290.972 280.76C291.292 280.92 291.548 281.144 291.74 281.432C291.943 281.72 292.044 282.104 292.044 282.584C292.044 283.096 291.895 283.539 291.596 283.912C291.298 284.285 290.876 284.579 290.332 284.792C289.788 284.995 289.138 285.096 288.38 285.096ZM295.212 282.952L295.244 280.984L300.124 276.52H301.98L298.236 280.2L297.404 280.904L295.212 282.952ZM293.964 285V273.128H295.5V285H293.964ZM300.444 285L297.116 280.872L298.108 279.64L302.332 285H300.444ZM305.99 285.096C305.286 285.096 304.614 285 303.974 284.808C303.344 284.616 302.848 284.381 302.486 284.104L303.126 282.888C303.488 283.133 303.936 283.341 304.47 283.512C305.003 283.683 305.547 283.768 306.102 283.768C306.816 283.768 307.328 283.667 307.638 283.464C307.958 283.261 308.118 282.979 308.118 282.616C308.118 282.349 308.022 282.141 307.83 281.992C307.638 281.843 307.382 281.731 307.062 281.656C306.752 281.581 306.406 281.517 306.022 281.464C305.638 281.4 305.254 281.325 304.87 281.24C304.486 281.144 304.134 281.016 303.814 280.856C303.494 280.685 303.238 280.456 303.046 280.168C302.854 279.869 302.758 279.475 302.758 278.984C302.758 278.472 302.902 278.024 303.19 277.64C303.478 277.256 303.883 276.963 304.406 276.76C304.939 276.547 305.568 276.44 306.294 276.44C306.848 276.44 307.408 276.509 307.974 276.648C308.55 276.776 309.019 276.963 309.382 277.208L308.726 278.424C308.342 278.168 307.942 277.992 307.526 277.896C307.11 277.8 306.694 277.752 306.278 277.752C305.606 277.752 305.104 277.864 304.774 278.088C304.443 278.301 304.278 278.579 304.278 278.92C304.278 279.208 304.374 279.432 304.566 279.592C304.768 279.741 305.024 279.859 305.334 279.944C305.654 280.029 306.006 280.104 306.39 280.168C306.774 280.221 307.158 280.296 307.542 280.392C307.926 280.477 308.272 280.6 308.582 280.76C308.902 280.92 309.158 281.144 309.35 281.432C309.552 281.72 309.654 282.104 309.654 282.584C309.654 283.096 309.504 283.539 309.206 283.912C308.907 284.285 308.486 284.579 307.942 284.792C307.398 284.995 306.747 285.096 305.99 285.096Z" fill="#23303B"/>
<path d="M265.999 229.188V229M284.672 247.672C280.722 251.621 269.161 246.463 258.849 236.151C248.537 225.839 243.379 214.277 247.328 210.328C251.277 206.379 262.839 211.537 273.151 221.849C283.463 232.161 288.621 243.723 284.672 247.672ZM247.328 247.672C243.379 243.723 248.537 232.161 258.849 221.849C269.161 211.537 280.723 206.379 284.672 210.328C288.621 214.277 283.463 225.839 273.151 236.151C262.839 246.463 251.278 251.621 247.328 247.672Z" stroke="#0095FF" stroke-width="3" stroke-linecap="round"/>
<g filter="url(#filter2_d_786_2520)">
<rect x="31" y="27" width="141" height="128.796" rx="10" fill="white"/>
<rect x="31.5" y="27.5" width="140" height="127.796" rx="9.5" stroke="#0095FF"/>
</g>
<path d="M48.0998 137L44.3558 125.8H46.0038L49.4438 136.136H48.6118L52.1798 125.8H53.6518L57.1398 136.136H56.3398L59.8278 125.8H61.3478L57.6038 137H55.9238L52.6597 127.416H53.0918L49.8118 137H48.0998ZM67.7044 137V135.208L67.6244 134.872V131.816C67.6244 131.165 67.4324 130.664 67.0484 130.312C66.675 129.949 66.1097 129.768 65.3524 129.768C64.851 129.768 64.3604 129.853 63.8804 130.024C63.4004 130.184 62.995 130.403 62.6644 130.68L62.0244 129.528C62.4617 129.176 62.9844 128.909 63.5924 128.728C64.211 128.536 64.8564 128.44 65.5284 128.44C66.691 128.44 67.587 128.723 68.2164 129.288C68.8457 129.853 69.1604 130.717 69.1604 131.88V137H67.7044ZM64.9204 137.096C64.291 137.096 63.7364 136.989 63.2564 136.776C62.787 136.563 62.4244 136.269 62.1684 135.896C61.9124 135.512 61.7844 135.08 61.7844 134.6C61.7844 134.141 61.891 133.725 62.1044 133.352C62.3284 132.979 62.6857 132.68 63.1764 132.456C63.6777 132.232 64.3497 132.12 65.1924 132.12H67.8804V133.224H65.2564C64.4884 133.224 63.971 133.352 63.7044 133.608C63.4377 133.864 63.3044 134.173 63.3044 134.536C63.3044 134.952 63.4697 135.288 63.8004 135.544C64.131 135.789 64.5897 135.912 65.1764 135.912C65.7524 135.912 66.2537 135.784 66.6804 135.528C67.1177 135.272 67.4324 134.899 67.6244 134.408L67.9284 135.464C67.7257 135.965 67.3684 136.365 66.8564 136.664C66.3444 136.952 65.699 137.096 64.9204 137.096ZM74.9149 137.096C74.0615 137.096 73.4002 136.867 72.9309 136.408C72.4615 135.949 72.2269 135.293 72.2269 134.44V126.664H73.7629V134.376C73.7629 134.835 73.8749 135.187 74.0989 135.432C74.3335 135.677 74.6642 135.8 75.0909 135.8C75.5709 135.8 75.9709 135.667 76.2909 135.4L76.7709 136.504C76.5362 136.707 76.2535 136.856 75.9229 136.952C75.6029 137.048 75.2669 137.096 74.9149 137.096ZM70.7869 129.784V128.52H76.1949V129.784H70.7869ZM82.0426 137.096C81.1786 137.096 80.4053 136.909 79.7226 136.536C79.0506 136.163 78.5226 135.651 78.1386 135C77.7546 134.349 77.5626 133.603 77.5626 132.76C77.5626 131.917 77.7546 131.171 78.1386 130.52C78.5226 129.869 79.0506 129.363 79.7226 129C80.4053 128.627 81.1786 128.44 82.0426 128.44C82.8106 128.44 83.4933 128.595 84.0906 128.904C84.6986 129.203 85.168 129.651 85.4986 130.248L84.3306 131C84.0533 130.584 83.712 130.28 83.3066 130.088C82.912 129.885 82.4853 129.784 82.0266 129.784C81.472 129.784 80.976 129.907 80.5386 130.152C80.1013 130.397 79.7546 130.744 79.4986 131.192C79.2426 131.629 79.1146 132.152 79.1146 132.76C79.1146 133.368 79.2426 133.896 79.4986 134.344C79.7546 134.792 80.1013 135.139 80.5386 135.384C80.976 135.629 81.472 135.752 82.0266 135.752C82.4853 135.752 82.912 135.656 83.3066 135.464C83.712 135.261 84.0533 134.952 84.3306 134.536L85.4986 135.272C85.168 135.859 84.6986 136.312 84.0906 136.632C83.4933 136.941 82.8106 137.096 82.0426 137.096ZM91.9059 128.44C92.5992 128.44 93.2072 128.573 93.7299 128.84C94.2632 129.107 94.6792 129.512 94.9779 130.056C95.2765 130.6 95.4259 131.288 95.4259 132.12V137H93.8899V132.296C93.8899 131.475 93.6872 130.856 93.2819 130.44C92.8872 130.024 92.3272 129.816 91.6019 129.816C91.0579 129.816 90.5832 129.923 90.1779 130.136C89.7725 130.349 89.4579 130.664 89.2339 131.08C89.0205 131.496 88.9139 132.013 88.9139 132.632V137H87.3779V125.128H88.9139V130.808L88.6099 130.2C88.8872 129.645 89.3139 129.213 89.8899 128.904C90.4659 128.595 91.1379 128.44 91.9059 128.44ZM113.173 128.44C113.856 128.44 114.459 128.573 114.981 128.84C115.504 129.107 115.909 129.512 116.197 130.056C116.496 130.6 116.645 131.288 116.645 132.12V137H115.109V132.296C115.109 131.475 114.917 130.856 114.533 130.44C114.149 130.024 113.611 129.816 112.917 129.816C112.405 129.816 111.957 129.923 111.573 130.136C111.189 130.349 110.891 130.664 110.677 131.08C110.475 131.496 110.373 132.013 110.373 132.632V137H108.837V132.296C108.837 131.475 108.645 130.856 108.261 130.44C107.888 130.024 107.349 129.816 106.645 129.816C106.144 129.816 105.701 129.923 105.317 130.136C104.933 130.349 104.635 130.664 104.421 131.08C104.208 131.496 104.101 132.013 104.101 132.632V137H102.565V128.52H104.037V130.776L103.797 130.2C104.064 129.645 104.475 129.213 105.029 128.904C105.584 128.595 106.229 128.44 106.965 128.44C107.776 128.44 108.475 128.643 109.061 129.048C109.648 129.443 110.032 130.045 110.213 130.856L109.589 130.6C109.845 129.949 110.293 129.427 110.933 129.032C111.573 128.637 112.32 128.44 113.173 128.44ZM123.104 137.096C122.25 137.096 121.493 136.909 120.832 136.536C120.17 136.163 119.648 135.651 119.264 135C118.88 134.339 118.688 133.592 118.688 132.76C118.688 131.917 118.88 131.171 119.264 130.52C119.648 129.869 120.17 129.363 120.832 129C121.493 128.627 122.25 128.44 123.104 128.44C123.946 128.44 124.698 128.627 125.36 129C126.032 129.363 126.554 129.869 126.928 130.52C127.312 131.16 127.504 131.907 127.504 132.76C127.504 133.603 127.312 134.349 126.928 135C126.554 135.651 126.032 136.163 125.36 136.536C124.698 136.909 123.946 137.096 123.104 137.096ZM123.104 135.752C123.648 135.752 124.133 135.629 124.56 135.384C124.997 135.139 125.338 134.792 125.584 134.344C125.829 133.885 125.952 133.357 125.952 132.76C125.952 132.152 125.829 131.629 125.584 131.192C125.338 130.744 124.997 130.397 124.56 130.152C124.133 129.907 123.648 129.784 123.104 129.784C122.56 129.784 122.074 129.907 121.648 130.152C121.221 130.397 120.88 130.744 120.624 131.192C120.368 131.629 120.24 132.152 120.24 132.76C120.24 133.357 120.368 133.885 120.624 134.344C120.88 134.792 121.221 135.139 121.648 135.384C122.074 135.629 122.56 135.752 123.104 135.752ZM131.618 137L127.905 128.52H129.506L132.802 136.2H132.034L135.394 128.52H136.898L133.186 137H131.618ZM138.331 137V128.52H139.867V137H138.331ZM139.099 126.888C138.8 126.888 138.55 126.792 138.347 126.6C138.155 126.408 138.059 126.173 138.059 125.896C138.059 125.608 138.155 125.368 138.347 125.176C138.55 124.984 138.8 124.888 139.099 124.888C139.398 124.888 139.643 124.984 139.835 125.176C140.038 125.357 140.139 125.587 140.139 125.864C140.139 126.152 140.043 126.397 139.851 126.6C139.659 126.792 139.408 126.888 139.099 126.888ZM146.576 137.096C145.669 137.096 144.869 136.909 144.176 136.536C143.493 136.163 142.96 135.651 142.576 135C142.202 134.349 142.016 133.603 142.016 132.76C142.016 131.917 142.197 131.171 142.56 130.52C142.933 129.869 143.44 129.363 144.08 129C144.73 128.627 145.461 128.44 146.272 128.44C147.093 128.44 147.818 128.621 148.448 128.984C149.077 129.347 149.568 129.859 149.92 130.52C150.282 131.171 150.464 131.933 150.464 132.808C150.464 132.872 150.458 132.947 150.448 133.032C150.448 133.117 150.442 133.197 150.432 133.272H143.216V132.168H149.632L149.008 132.552C149.018 132.008 148.906 131.523 148.672 131.096C148.437 130.669 148.112 130.339 147.696 130.104C147.29 129.859 146.816 129.736 146.272 129.736C145.738 129.736 145.264 129.859 144.848 130.104C144.432 130.339 144.106 130.675 143.872 131.112C143.637 131.539 143.52 132.029 143.52 132.584V132.84C143.52 133.405 143.648 133.912 143.904 134.36C144.17 134.797 144.538 135.139 145.008 135.384C145.477 135.629 146.016 135.752 146.624 135.752C147.125 135.752 147.578 135.667 147.984 135.496C148.4 135.325 148.762 135.069 149.072 134.728L149.92 135.72C149.536 136.168 149.056 136.509 148.48 136.744C147.914 136.979 147.28 137.096 146.576 137.096ZM155.029 137.096C154.325 137.096 153.653 137 153.013 136.808C152.383 136.616 151.887 136.381 151.525 136.104L152.165 134.888C152.527 135.133 152.975 135.341 153.509 135.512C154.042 135.683 154.586 135.768 155.141 135.768C155.855 135.768 156.367 135.667 156.677 135.464C156.997 135.261 157.157 134.979 157.157 134.616C157.157 134.349 157.061 134.141 156.869 133.992C156.677 133.843 156.421 133.731 156.101 133.656C155.791 133.581 155.445 133.517 155.061 133.464C154.677 133.4 154.293 133.325 153.909 133.24C153.525 133.144 153.173 133.016 152.853 132.856C152.533 132.685 152.277 132.456 152.085 132.168C151.893 131.869 151.797 131.475 151.797 130.984C151.797 130.472 151.941 130.024 152.229 129.64C152.517 129.256 152.922 128.963 153.445 128.76C153.978 128.547 154.607 128.44 155.333 128.44C155.887 128.44 156.447 128.509 157.013 128.648C157.589 128.776 158.058 128.963 158.421 129.208L157.765 130.424C157.381 130.168 156.981 129.992 156.565 129.896C156.149 129.8 155.733 129.752 155.317 129.752C154.645 129.752 154.143 129.864 153.813 130.088C153.482 130.301 153.317 130.579 153.317 130.92C153.317 131.208 153.413 131.432 153.605 131.592C153.807 131.741 154.063 131.859 154.373 131.944C154.693 132.029 155.045 132.104 155.429 132.168C155.813 132.221 156.197 132.296 156.581 132.392C156.965 132.477 157.311 132.6 157.621 132.76C157.941 132.92 158.197 133.144 158.389 133.432C158.591 133.72 158.693 134.104 158.693 134.584C158.693 135.096 158.543 135.539 158.245 135.912C157.946 136.285 157.525 136.579 156.981 136.792C156.437 136.995 155.786 137.096 155.029 137.096Z" fill="#23303B"/>
<path d="M120 82C120 92.4934 111.493 101 101 101C90.5066 101 82 92.4934 82 82C82 71.5066 90.5066 63 101 63C111.493 63 120 71.5066 120 82Z" stroke="#0095FF" stroke-width="3" stroke-linecap="round" stroke-linejoin="round"/>
<path d="M95.4118 87.0894V76.9106C95.4118 75.1943 97.2659 74.1183 98.7561 74.9699L107.662 80.0592C109.164 80.9173 109.164 83.0827 107.662 83.9408L98.7561 89.0301C97.2659 89.8817 95.4118 88.8057 95.4118 87.0894Z" stroke="#0095FF" stroke-width="3" stroke-linecap="round" stroke-linejoin="round"/>
<g filter="url(#filter3_d_786_2520)">
<rect x="196" y="27" width="141" height="128.796" rx="10" fill="white"/>
<rect x="196.5" y="27.5" width="140" height="127.796" rx="9.5" stroke="#0095FF"/>
</g>
<path d="M221.188 137V125.8H225.556C226.537 125.8 227.374 125.955 228.068 126.264C228.761 126.573 229.294 127.021 229.668 127.608C230.041 128.195 230.228 128.893 230.228 129.704C230.228 130.515 230.041 131.213 229.668 131.8C229.294 132.376 228.761 132.824 228.068 133.144C227.374 133.453 226.537 133.608 225.556 133.608H222.068L222.788 132.856V137H221.188ZM222.788 133.016L222.068 132.216H225.508C226.532 132.216 227.305 131.997 227.828 131.56C228.361 131.123 228.628 130.504 228.628 129.704C228.628 128.904 228.361 128.285 227.828 127.848C227.305 127.411 226.532 127.192 225.508 127.192H222.068L222.788 126.392V133.016ZM232.511 137V125.128H234.047V137H232.511ZM242.243 137V135.208L242.163 134.872V131.816C242.163 131.165 241.971 130.664 241.587 130.312C241.214 129.949 240.649 129.768 239.891 129.768C239.39 129.768 238.899 129.853 238.419 130.024C237.939 130.184 237.534 130.403 237.203 130.68L236.563 129.528C237.001 129.176 237.523 128.909 238.131 128.728C238.75 128.536 239.395 128.44 240.067 128.44C241.23 128.44 242.126 128.723 242.755 129.288C243.385 129.853 243.699 130.717 243.699 131.88V137H242.243ZM239.459 137.096C238.83 137.096 238.275 136.989 237.795 136.776C237.326 136.563 236.963 136.269 236.707 135.896C236.451 135.512 236.323 135.08 236.323 134.6C236.323 134.141 236.43 133.725 236.643 133.352C236.867 132.979 237.225 132.68 237.715 132.456C238.217 132.232 238.889 132.12 239.731 132.12H242.419V133.224H239.795C239.027 133.224 238.51 133.352 238.243 133.608C237.977 133.864 237.843 134.173 237.843 134.536C237.843 134.952 238.009 135.288 238.339 135.544C238.67 135.789 239.129 135.912 239.715 135.912C240.291 135.912 240.793 135.784 241.219 135.528C241.657 135.272 241.971 134.899 242.163 134.408L242.467 135.464C242.265 135.965 241.907 136.365 241.395 136.664C240.883 136.952 240.238 137.096 239.459 137.096ZM246.754 140.2C246.348 140.2 245.954 140.131 245.57 139.992C245.186 139.864 244.855 139.672 244.578 139.416L245.234 138.264C245.447 138.467 245.682 138.621 245.938 138.728C246.194 138.835 246.466 138.888 246.754 138.888C247.127 138.888 247.436 138.792 247.682 138.6C247.927 138.408 248.156 138.067 248.37 137.576L248.898 136.408L249.058 136.216L252.386 128.52H253.89L249.778 137.848C249.532 138.445 249.255 138.915 248.946 139.256C248.647 139.597 248.316 139.837 247.954 139.976C247.591 140.125 247.191 140.2 246.754 140.2ZM248.77 137.272L244.898 128.52H246.498L249.794 136.072L248.77 137.272ZM263.332 140.2C262.553 140.2 261.796 140.088 261.06 139.864C260.335 139.651 259.743 139.341 259.284 138.936L260.02 137.752C260.415 138.093 260.9 138.36 261.476 138.552C262.052 138.755 262.655 138.856 263.284 138.856C264.287 138.856 265.023 138.621 265.492 138.152C265.961 137.683 266.196 136.968 266.196 136.008V134.216L266.356 132.536L266.276 130.84V128.52H267.732V135.848C267.732 137.341 267.359 138.44 266.612 139.144C265.865 139.848 264.772 140.2 263.332 140.2ZM263.14 136.648C262.319 136.648 261.583 136.477 260.932 136.136C260.292 135.784 259.78 135.299 259.396 134.68C259.023 134.061 258.836 133.347 258.836 132.536C258.836 131.715 259.023 131 259.396 130.392C259.78 129.773 260.292 129.293 260.932 128.952C261.583 128.611 262.319 128.44 263.14 128.44C263.865 128.44 264.527 128.589 265.124 128.888C265.721 129.176 266.196 129.624 266.548 130.232C266.911 130.84 267.092 131.608 267.092 132.536C267.092 133.453 266.911 134.216 266.548 134.824C266.196 135.432 265.721 135.891 265.124 136.2C264.527 136.499 263.865 136.648 263.14 136.648ZM263.316 135.304C263.881 135.304 264.383 135.187 264.82 134.952C265.257 134.717 265.599 134.392 265.844 133.976C266.1 133.56 266.228 133.08 266.228 132.536C266.228 131.992 266.1 131.512 265.844 131.096C265.599 130.68 265.257 130.36 264.82 130.136C264.383 129.901 263.881 129.784 263.316 129.784C262.751 129.784 262.244 129.901 261.796 130.136C261.359 130.36 261.012 130.68 260.756 131.096C260.511 131.512 260.388 131.992 260.388 132.536C260.388 133.08 260.511 133.56 260.756 133.976C261.012 134.392 261.359 134.717 261.796 134.952C262.244 135.187 262.751 135.304 263.316 135.304ZM275.931 137V135.208L275.851 134.872V131.816C275.851 131.165 275.659 130.664 275.275 130.312C274.902 129.949 274.336 129.768 273.579 129.768C273.078 129.768 272.587 129.853 272.107 130.024C271.627 130.184 271.222 130.403 270.891 130.68L270.251 129.528C270.688 129.176 271.211 128.909 271.819 128.728C272.438 128.536 273.083 128.44 273.755 128.44C274.918 128.44 275.814 128.723 276.443 129.288C277.072 129.853 277.387 130.717 277.387 131.88V137H275.931ZM273.147 137.096C272.518 137.096 271.963 136.989 271.483 136.776C271.014 136.563 270.651 136.269 270.395 135.896C270.139 135.512 270.011 135.08 270.011 134.6C270.011 134.141 270.118 133.725 270.331 133.352C270.555 132.979 270.912 132.68 271.403 132.456C271.904 132.232 272.576 132.12 273.419 132.12H276.107V133.224H273.483C272.715 133.224 272.198 133.352 271.931 133.608C271.664 133.864 271.531 134.173 271.531 134.536C271.531 134.952 271.696 135.288 272.027 135.544C272.358 135.789 272.816 135.912 273.403 135.912C273.979 135.912 274.48 135.784 274.907 135.528C275.344 135.272 275.659 134.899 275.851 134.408L276.155 135.464C275.952 135.965 275.595 136.365 275.083 136.664C274.571 136.952 273.926 137.096 273.147 137.096ZM290.837 128.44C291.52 128.44 292.123 128.573 292.645 128.84C293.168 129.107 293.573 129.512 293.861 130.056C294.16 130.6 294.309 131.288 294.309 132.12V137H292.773V132.296C292.773 131.475 292.581 130.856 292.197 130.44C291.813 130.024 291.275 129.816 290.581 129.816C290.069 129.816 289.621 129.923 289.237 130.136C288.853 130.349 288.555 130.664 288.341 131.08C288.139 131.496 288.037 132.013 288.037 132.632V137H286.501V132.296C286.501 131.475 286.309 130.856 285.925 130.44C285.552 130.024 285.013 129.816 284.309 129.816C283.808 129.816 283.365 129.923 282.981 130.136C282.597 130.349 282.299 130.664 282.085 131.08C281.872 131.496 281.765 132.013 281.765 132.632V137H280.229V128.52H281.701V130.776L281.461 130.2C281.728 129.645 282.139 129.213 282.693 128.904C283.248 128.595 283.893 128.44 284.629 128.44C285.44 128.44 286.139 128.643 286.725 129.048C287.312 129.443 287.696 130.045 287.877 130.856L287.253 130.6C287.509 129.949 287.957 129.427 288.597 129.032C289.237 128.637 289.984 128.44 290.837 128.44ZM300.912 137.096C300.005 137.096 299.205 136.909 298.512 136.536C297.829 136.163 297.296 135.651 296.912 135C296.538 134.349 296.352 133.603 296.352 132.76C296.352 131.917 296.533 131.171 296.896 130.52C297.269 129.869 297.776 129.363 298.416 129C299.066 128.627 299.797 128.44 300.608 128.44C301.429 128.44 302.154 128.621 302.784 128.984C303.413 129.347 303.904 129.859 304.256 130.52C304.618 131.171 304.8 131.933 304.8 132.808C304.8 132.872 304.794 132.947 304.784 133.032C304.784 133.117 304.778 133.197 304.768 133.272H297.552V132.168H303.968L303.344 132.552C303.354 132.008 303.242 131.523 303.008 131.096C302.773 130.669 302.448 130.339 302.032 130.104C301.626 129.859 301.152 129.736 300.608 129.736C300.074 129.736 299.6 129.859 299.184 130.104C298.768 130.339 298.442 130.675 298.208 131.112C297.973 131.539 297.856 132.029 297.856 132.584V132.84C297.856 133.405 297.984 133.912 298.24 134.36C298.506 134.797 298.874 135.139 299.344 135.384C299.813 135.629 300.352 135.752 300.96 135.752C301.461 135.752 301.914 135.667 302.32 135.496C302.736 135.325 303.098 135.069 303.408 134.728L304.256 135.72C303.872 136.168 303.392 136.509 302.816 136.744C302.25 136.979 301.616 137.096 300.912 137.096ZM309.365 137.096C308.661 137.096 307.989 137 307.349 136.808C306.719 136.616 306.223 136.381 305.861 136.104L306.501 134.888C306.863 135.133 307.311 135.341 307.845 135.512C308.378 135.683 308.922 135.768 309.477 135.768C310.191 135.768 310.703 135.667 311.013 135.464C311.333 135.261 311.493 134.979 311.493 134.616C311.493 134.349 311.397 134.141 311.205 133.992C311.013 133.843 310.757 133.731 310.437 133.656C310.127 133.581 309.781 133.517 309.397 133.464C309.013 133.4 308.629 133.325 308.245 133.24C307.861 133.144 307.509 133.016 307.189 132.856C306.869 132.685 306.613 132.456 306.421 132.168C306.229 131.869 306.133 131.475 306.133 130.984C306.133 130.472 306.277 130.024 306.565 129.64C306.853 129.256 307.258 128.963 307.781 128.76C308.314 128.547 308.943 128.44 309.669 128.44C310.223 128.44 310.783 128.509 311.349 128.648C311.925 128.776 312.394 128.963 312.757 129.208L312.101 130.424C311.717 130.168 311.317 129.992 310.901 129.896C310.485 129.8 310.069 129.752 309.653 129.752C308.981 129.752 308.479 129.864 308.149 130.088C307.818 130.301 307.653 130.579 307.653 130.92C307.653 131.208 307.749 131.432 307.941 131.592C308.143 131.741 308.399 131.859 308.709 131.944C309.029 132.029 309.381 132.104 309.765 132.168C310.149 132.221 310.533 132.296 310.917 132.392C311.301 132.477 311.647 132.6 311.957 132.76C312.277 132.92 312.533 133.144 312.725 133.432C312.927 133.72 313.029 134.104 313.029 134.584C313.029 135.096 312.879 135.539 312.581 135.912C312.282 136.285 311.861 136.579 311.317 136.792C310.773 136.995 310.122 137.096 309.365 137.096Z" fill="#23303B"/>
<path d="M255.221 92.4354V86.229M252.035 89.3321H258.406M266 77.6659V74.166C266 70.9462 268.68 68.3329 271.988 68.3329C275.296 68.3329 277.976 65.7221 277.976 62.4999V59M277.976 84.6656C277.976 85.9542 276.903 86.9988 275.58 86.9988C274.258 86.9988 273.185 85.9542 273.185 84.6656C273.185 83.377 274.258 82.3324 275.58 82.3324C276.903 82.3324 277.976 83.377 277.976 84.6656ZM282.765 91.6653C282.765 92.9539 281.693 93.9985 280.37 93.9985C279.047 93.9985 277.975 92.9539 277.975 91.6653C277.975 90.3767 279.047 89.3321 280.37 89.3321C281.693 89.3321 282.765 90.3767 282.765 91.6653ZM254.978 77.6659C251.912 77.6659 248.848 78.8045 246.508 81.0841C241.831 85.6409 241.831 93.0256 246.508 97.5824C251.186 102.139 258.767 102.139 263.444 97.5824H268.556C273.233 102.139 280.814 102.139 285.492 97.5824C290.169 93.0256 290.169 85.6409 285.492 81.0841C283.154 78.8045 280.088 77.6659 277.022 77.6659H254.978Z" stroke="#0095FF" stroke-width="3" stroke-linecap="round" stroke-linejoin="round"/>
<defs>
<filter id="filter0_d_786_2520" x="0" y="148" width="205" height="192.796" filterUnits="userSpaceOnUse" color-interpolation-filters="sRGB">
<feFlood flood-opacity="0" result="BackgroundImageFix"/>
<feColorMatrix in="SourceAlpha" type="matrix" values="0 0 0 0 0 0 0 0 0 0 0 0 0 0 0 0 0 0 127 0" result="hardAlpha"/>
<feMorphology radius="8" operator="dilate" in="SourceAlpha" result="effect1_dropShadow_786_2520"/>
<feOffset dx="1" dy="5"/>
<feGaussianBlur stdDeviation="12"/>
<feComposite in2="hardAlpha" operator="out"/>
<feColorMatrix type="matrix" values="0 0 0 0 0.431373 0 0 0 0 0.458824 0 0 0 0 0.533333 0 0 0 0.07 0"/>
<feBlend mode="normal" in2="BackgroundImageFix" result="effect1_dropShadow_786_2520"/>
<feBlend mode="normal" in="SourceGraphic" in2="effect1_dropShadow_786_2520" result="shape"/>
</filter>
<filter id="filter1_d_786_2520" x="165" y="148" width="205" height="192.796" filterUnits="userSpaceOnUse" color-interpolation-filters="sRGB">
<feFlood flood-opacity="0" result="BackgroundImageFix"/>
<feColorMatrix in="SourceAlpha" type="matrix" values="0 0 0 0 0 0 0 0 0 0 0 0 0 0 0 0 0 0 127 0" result="hardAlpha"/>
<feMorphology radius="8" operator="dilate" in="SourceAlpha" result="effect1_dropShadow_786_2520"/>
<feOffset dx="1" dy="5"/>
<feGaussianBlur stdDeviation="12"/>
<feComposite in2="hardAlpha" operator="out"/>
<feColorMatrix type="matrix" values="0 0 0 0 0.431373 0 0 0 0 0.458824 0 0 0 0 0.533333 0 0 0 0.07 0"/>
<feBlend mode="normal" in2="BackgroundImageFix" result="effect1_dropShadow_786_2520"/>
<feBlend mode="normal" in="SourceGraphic" in2="effect1_dropShadow_786_2520" result="shape"/>
</filter>
<filter id="filter2_d_786_2520" x="0" y="0" width="205" height="192.796" filterUnits="userSpaceOnUse" color-interpolation-filters="sRGB">
<feFlood flood-opacity="0" result="BackgroundImageFix"/>
<feColorMatrix in="SourceAlpha" type="matrix" values="0 0 0 0 0 0 0 0 0 0 0 0 0 0 0 0 0 0 127 0" result="hardAlpha"/>
<feMorphology radius="8" operator="dilate" in="SourceAlpha" result="effect1_dropShadow_786_2520"/>
<feOffset dx="1" dy="5"/>
<feGaussianBlur stdDeviation="12"/>
<feComposite in2="hardAlpha" operator="out"/>
<feColorMatrix type="matrix" values="0 0 0 0 0.431373 0 0 0 0 0.458824 0 0 0 0 0.533333 0 0 0 0.07 0"/>
<feBlend mode="normal" in2="BackgroundImageFix" result="effect1_dropShadow_786_2520"/>
<feBlend mode="normal" in="SourceGraphic" in2="effect1_dropShadow_786_2520" result="shape"/>
</filter>
<filter id="filter3_d_786_2520" x="165" y="0" width="205" height="192.796" filterUnits="userSpaceOnUse" color-interpolation-filters="sRGB">
<feFlood flood-opacity="0" result="BackgroundImageFix"/>
<feColorMatrix in="SourceAlpha" type="matrix" values="0 0 0 0 0 0 0 0 0 0 0 0 0 0 0 0 0 0 127 0" result="hardAlpha"/>
<feMorphology radius="8" operator="dilate" in="SourceAlpha" result="effect1_dropShadow_786_2520"/>
<feOffset dx="1" dy="5"/>
<feGaussianBlur stdDeviation="12"/>
<feComposite in2="hardAlpha" operator="out"/>
<feColorMatrix type="matrix" values="0 0 0 0 0.431373 0 0 0 0 0.458824 0 0 0 0 0.533333 0 0 0 0.07 0"/>
<feBlend mode="normal" in2="BackgroundImageFix" result="effect1_dropShadow_786_2520"/>
<feBlend mode="normal" in="SourceGraphic" in2="effect1_dropShadow_786_2520" result="shape"/>
</filter>
</defs>
</svg>
